<?xml version="1.0" encoding="utf-8"?>
<!-- Generator: Adobe Illustrator 24.0.1, SVG Export Plug-In . SVG Version: 6.00 Build 0)  -->
<svg version="1.1" xmlns="http://www.w3.org/2000/svg" xmlns:xlink="http://www.w3.org/1999/xlink" x="0px" y="0px"
	 viewBox="0 0 3200 2000" style="enable-background:new 0 0 3200 2000;" xml:space="preserve">
<style type="text/css">
	.st0{fill:#F4F4F4;}
	.st1{fill:#A3A3A3;}
	.st2{fill:#E2E2E2;}
	.st3{fill:#BAD4F4;}
	.st4{fill:#2E3552;}
	.st5{fill:#613E18;}
	.st6{fill:#E5925A;}
	.st7{fill:#BC820F;}
	.st8{fill:#02341D;}
	.st9{fill:#F9B40F;}
	.st10{fill:#FFFFFF;}
	.st11{fill:#EBF3FA;}
	.st12{fill:#FFB27D;}
	.st13{fill:#F4A269;}
	.st14{fill:#3A250F;}
	.st15{fill:#850B0B;}
	.st16{fill:#B5453C;}
	.st17{fill:#EFCBAB;}
	.st18{fill:#ED7D2B;}
	.st19{fill:#F2F7FE;}
	.st20{fill:#C4D9E8;}
	.st21{fill:#DFEBF5;}
	.st22{fill:none;}
</style>
<g id="illustration">
	<g>
		<path class="st0" d="M434.4,1775.1c0,0-324.8-395.4-166.1-802.5C371.8,707.2,759.9,561.8,979,707.2
			c93.3,61.9,392.6,2.1,552.5-254.3c310.6-498.2,1394.6-195.6,1197.2,569.3c-95.5,370.2,290.6,383.6,93.9,753.6L434.4,1775.1z"/>
		<g>
			<g>
				<path class="st1" d="M1715.4,1771.3h-0.8c-6.9-0.1-12.2-5.7-11.5-12.2l45.8-457.5l40,3.6l-65.8,459.9
					C1722.5,1768.7,1719.2,1771.3,1715.4,1771.3z"/>
			</g>
			<g>
				<path class="st2" d="M2156.5,1771.3h0.8c6.9-0.1,12.2-5.7,11.5-12.2l-45.8-457.5l-40,3.6l65.8,459.9
					C2149.3,1768.7,2152.6,1771.3,2156.5,1771.3z"/>
			</g>
			<g>
				<path class="st3" d="M1392.2,1771.3h-0.8c-6.9-0.1-12.2-5.7-11.5-12.2l45.8-457.5l40,3.6l-65.8,459.9
					C1399.3,1768.7,1396,1771.3,1392.2,1771.3z"/>
			</g>
			<path class="st2" d="M2142.8,1235l81.3-401.5c10.4-54.4-34.6-104.1-93.1-102.7l-156.8,3.6c-54.1,1.2-101.1,37.4-116.2,89.4
				l-119,411.3L2142.8,1235L2142.8,1235z"/>
			<path class="st1" d="M2093.6,1235l81.3-401.5c10.4-54.4-34.6-104.1-93.1-102.7l-156.8,3.6c-54.1,1.2-101.1,37.4-116.2,89.4
				l-119,411.3L2093.6,1235L2093.6,1235z"/>
			<path class="st2" d="M2120.1,1308.3h-620.4c-12.5,0-22.7-10.2-22.7-22.7v-27.9c0-12.5,10.2-22.7,22.7-22.7h643.1v50.6
				C2142.8,1298.1,2132.6,1308.3,2120.1,1308.3z"/>
			<path class="st1" d="M1829,1308.3h-395.5c-10,0-18.3-8.2-18.3-18.3v-36.7c0-10,8.2-18.3,18.3-18.3H1829c10,0,18.3,8.2,18.3,18.3
				v36.7C1847.3,1300,1839,1308.3,1829,1308.3z"/>
		</g>
		<path class="st4" d="M2993.7,1778H243.3c-2.2,0-3.9-1.8-3.9-3.9v-3.7c0-2.2,1.8-3.9,3.9-3.9h2750.3c2.2,0,3.9,1.8,3.9,3.9v3.7
			C2997.6,1776.3,2995.8,1778,2993.7,1778z"/>
		<path class="st5" d="M1587.7,855c-8.7-7.2,181.8-168,222.6-77.8c0,0,97.8-75.4,7.7-119.5c-50.7-24.8-58-77.1-70-107.9
			c-12-30.8-72.8-114.6-143-55.7c0,0-35.6,6.3-54.8,29.8C1506.6,577.2,1409.6,933.8,1587.7,855z"/>
		<path class="st6" d="M1710.9,794.2c0,0-33.1,59.6-79.6,109c-24.5,26.1-52.8,49.4-81.8,59.5c-14.2,5-28.5,6.8-42.7,4.3
			c-9.1-1.6-5.1-55.1,7.5-95.8c16.6-53.6,68.3-186.8,68.3-186.8l29.6,12.6c0,0-41.1,167.7-36.2,168.4l43.4-109.9L1710.9,794.2z"/>
		<path class="st7" d="M1774.1,1066c0,0-329.9-5.2-373.9,22.7c-44,28,44,475,44,475s85.3,2.7,92.1-19.9c0,0-15.3-209.4-1.9-245.6
			s5.1-86.3,5.1-86.3s166.9,25.5,219.9,12.9C1812.4,1212.3,1774.1,1066,1774.1,1066z"/>
		<g id="foot_1_">
			<g>
				<path id="foot_14_" class="st8" d="M1462.3,1541c0,0,18.8,50.3,14.8,68.9s2.4,54.8-5.2,71s-21.3,39.7-8.2,45.6
					c5,2.3,62.7-42.6,66-55.8c3.3-13.2,5.9-52.2,16.9-73.4s1.8-38.3-14.2-46c-16-7.8-38.3-50.4-38.3-50.4L1462.3,1541z"/>
			</g>
		</g>
		<path class="st8" d="M1406.3,1619c0,0-18.1,50.5-33.2,62.2s-33.5,43.4-49.8,50.9s-41.8,16.6-35.7,29.6c2.3,4.9,75.4,8,86.4,0
			c11.1-8,38.2-36.1,60.3-45.1s26-28.1,18.9-44.3c-7.2-16.3,3.3-63.2,3.3-63.2L1406.3,1619z"/>
		<path class="st9" d="M1961.2,1054.2c0,0-391.5,61.3-421.6,96.1c-30.2,34.8-149.6,488.5-149.6,488.5s34.9,19.6,66.6,1.5
			c0,0,90.9-153.8,131.1-202s55.6-197.5,62.2-199s217.3,25.4,294.9-25.9C1990.5,1183.1,1961.2,1054.2,1961.2,1054.2z"/>
		<path class="st10" d="M1826,728.1c-23.1-17.4-92.6-36.6-136.1-17c-20.6,9.3-51.8,21.4-70.5,44.6c-20.2,25.1-43.4,109.9-43.4,109.9
			c7.6,44.7,43.1,50.1,43.1,50.1l0,0c-20.8,78.6,77.2,58.1,70.8,101.7c-11,76.1,60.1,116,98.9,133.8c50.8,23.2,193.4,52.5,193.6,0
			C1983,912.2,1892.4,778.1,1826,728.1z"/>
		<path class="st11" d="M1818.1,812.8c0,0-25.7,138.9-95.4,179.6h-65.6l69.2-86.5L1818.1,812.8z"/>
		<g>
			<path class="st6" d="M1584.8,698.6c0,0-21.3-25.4-25-33.1c-3.7-7.7,3.3-40.8,11.9-40.6c5.5,0.1,12.2,20.2,18.2,27.5
				s32,17.7,21,48.3C1609.7,704.1,1584.8,698.6,1584.8,698.6z"/>
		</g>
		<g>
			<path class="st12" d="M1639,749.3c-6,9,1.3,34.3,35.4,26.4c22.4-5.2,65.9-41.4,58.1-59.9c-3.7-8.8-25.2-29.4-38.6-83.1l-3.9,1.9
				l-65.6,31.3c0,0,7.1,21.3,12.4,41.8C1641.1,724.7,1641.5,745.6,1639,749.3z"/>
			<path class="st13" d="M1624.3,665.7c0,0,7.1,21.3,12.4,41.8c38.4-10.9,49.8-51.4,53.2-73.1L1624.3,665.7z"/>
			<path class="st12" d="M1587,677.5c0,0,91.9,21.3,104.3-36.1c12.4-57.4,32.6-93.4-25.5-109.4c-58.2-16-74.3,3.4-83.1,21.6
				C1573.8,571.7,1563.4,670.5,1587,677.5z"/>
			<path class="st5" d="M1624,521.5c0,0,0.6,66.1,49.3,98.2c28.5,18.8,29.8,38,29.8,38s16.9-56.6,19.5-99.1
				C1722.7,558.6,1650,493.5,1624,521.5z"/>
			<path class="st14" d="M1629.8,533.2c0,0-27.2,9-39.3,19c-17.9,14.8-22.6,63-20.4,75c0,0-4.9-83.7,22.1-105
				C1620.8,499.5,1629.8,533.2,1629.8,533.2z"/>
		</g>
		<path class="st12" d="M1818.1,812.9c-9.4,22.3-20.2,43.3-31.7,62.3c-43.9,72.5-97.5,116.3-116.9,95.9c-5.4-5.6-18.9-13.9-4.7-44.2
			c10.9-23.5,24.4-52.8,37.7-81.7c27.4-59.5,53.6-117.1,53.6-117.1C1764.5,728.1,1852.4,731.1,1818.1,812.9z"/>
		<path class="st12" d="M1726.3,905.9c-3-1.8-168.4,38.4-219.6,50.9c-9.4,2.3-15,3.7-15,3.7v19.3c0,0,171.1,8,197.9-4.2
			c26.7-12.3,52.2-40.8,52.2-40.8L1726.3,905.9z"/>
		<path class="st10" d="M1818.1,812.9c-9.4,22.3-20.2,43.3-31.7,62.3c-35.7-4.6-68.7-21.3-83.9-30c27.4-59.5,53.6-117.1,53.6-117.1
			C1764.5,728.1,1852.4,731.1,1818.1,812.9z"/>
		<g>
			<path class="st7" d="M1190.9,979.8h183.7l0,0c0-8.1-6.6-14.6-14.6-14.6h-169.1V979.8z"/>
			<polygon class="st7" points="1191.4,779.7 907.4,779.7 975.5,979.8 1261.4,979.8 			"/>
			<polygon class="st9" points="903.2,779.7 971.3,979.8 1257.2,979.8 1187.2,779.7 			"/>
			<path class="st10" d="M1056.3,877.9c1.8,7.6,9.4,13.8,17,13.8s12.4-6.2,10.6-13.8s-9.4-13.8-17-13.8S1054.6,870.3,1056.3,877.9z"
				/>
		</g>
		<g>
			<path class="st1" d="M2251.4,1307.7v11.6c0,4.1,1.3,7.4,2.9,7.4h424.9c1.6,0,2.9-3.3,2.9-7.4v-11.6c0-4.1-1.3-7.4-2.9-7.4h-424.9
				C2252.7,1300.3,2251.4,1303.7,2251.4,1307.7z"/>
			<path class="st2" d="M2251.4,1307.7v11.6c0,4.1,1.2,7.4,2.7,7.4h337.4c1.5,0,2.7-3.3,2.7-7.4v-11.6c0-4.1-1.2-7.4-2.7-7.4h-337.4
				C2252.6,1300.3,2251.4,1303.7,2251.4,1307.7z"/>
			<rect x="2358.9" y="1326.8" class="st1" width="301.7" height="439.7"/>
			<rect x="2274.4" y="1326.8" class="st2" width="301.7" height="439.7"/>
			<g>
				<g>
					<path class="st1" d="M2290.6,1339.2h269.3v403h-269.3V1339.2z M2557,1342.1h-263.4v397.2H2557V1342.1z"/>
				</g>
				<g>
					<rect x="2292.1" y="1472.5" class="st1" width="266.4" height="2.9"/>
				</g>
				<g>
					<rect x="2292.1" y="1608.4" class="st1" width="266.4" height="2.9"/>
				</g>
				<path class="st1" d="M2398,1365.2h49.4c2.4,0,4.4-2,4.4-4.4l0,0c0-2.4-2-4.4-4.4-4.4H2398c-2.4,0-4.4,2-4.4,4.4l0,0
					C2393.6,1363.2,2395.6,1365.2,2398,1365.2z"/>
				<path class="st1" d="M2398,1498.1h49.4c2.4,0,4.4-2,4.4-4.4l0,0c0-2.4-2-4.4-4.4-4.4H2398c-2.4,0-4.4,2-4.4,4.4l0,0
					C2393.6,1496.1,2395.6,1498.1,2398,1498.1z"/>
				<path class="st1" d="M2398,1636.7h49.4c2.4,0,4.4-2,4.4-4.4l0,0c0-2.4-2-4.4-4.4-4.4H2398c-2.4,0-4.4,2-4.4,4.4l0,0
					C2393.6,1634.7,2395.6,1636.7,2398,1636.7z"/>
			</g>
		</g>
		<g>
			<path class="st1" d="M2187.7,554.1h-172.6c-7.9,0-14.4-6.5-14.4-14.4V373.1c0-7.9,6.5-14.4,14.4-14.4h172.6
				c7.9,0,14.4,6.5,14.4,14.4v166.6C2202.1,547.6,2195.6,554.1,2187.7,554.1z"/>
			<path class="st2" d="M2180.2,545.7h-157.6c-7.2,0-13.2-5.9-13.2-13.2V380.4c0-7.2,5.9-13.2,13.2-13.2h157.6
				c7.2,0,13.2,5.9,13.2,13.2v152.1C2193.4,539.7,2187.5,545.7,2180.2,545.7z"/>
			<g>
				<g>
					<path class="st1" d="M2097.2,385c0-2.3,1.9-4.2,4.2-4.2s4.2,1.9,4.2,4.2s-1.9,4.2-4.2,4.2
						C2099.1,389.2,2097.2,387.3,2097.2,385z"/>
					<path class="st1" d="M2130.9,390.9c1.1-2,3.7-2.7,5.7-1.6s2.7,3.7,1.6,5.7c-1.1,2-3.7,2.7-5.7,1.6S2129.8,392.9,2130.9,390.9z"
						/>
					<path class="st1" d="M2159.7,413.8c1.9-1.2,4.5-0.7,5.8,1.2s0.7,4.5-1.2,5.8c-1.9,1.2-4.5,0.7-5.8-1.2
						C2157.2,417.7,2157.8,415.1,2159.7,413.8z"/>
					<path class="st1" d="M2174,449.3c2.3,0,4.2,1.9,4.2,4.2s-1.9,4.2-4.2,4.2s-4.2-1.9-4.2-4.2S2171.7,449.3,2174,449.3z"/>
					<path class="st1" d="M2166.7,490.5c1.6,1.6,1.6,4.3,0,5.9s-4.3,1.6-5.9,0c-1.6-1.6-1.6-4.3,0-5.9
						C2162.4,488.8,2165.1,488.8,2166.7,490.5z"/>
					<path class="st1" d="M2140.5,516.7c1.6,1.6,1.6,4.3,0,5.9c-1.6,1.6-4.3,1.6-5.9,0c-1.6-1.6-1.6-4.3,0-5.9
						C2136.3,515.1,2138.9,515.1,2140.5,516.7z"/>
					<path class="st1" d="M2097.2,530.3c0-2.3,1.9-4.2,4.2-4.2s4.2,1.9,4.2,4.2s-1.9,4.2-4.2,4.2
						C2099.1,534.4,2097.2,532.6,2097.2,530.3z"/>
				</g>
				<g>
					<path class="st1" d="M2071.8,390.9c-1.1-2-3.7-2.7-5.7-1.6s-2.7,3.7-1.6,5.7c1.1,2,3.7,2.7,5.7,1.6S2072.9,392.9,2071.8,390.9z
						"/>
					<path class="st1" d="M2042.9,413.8c-1.9-1.2-4.5-0.7-5.8,1.2s-0.7,4.5,1.2,5.8c1.9,1.2,4.5,0.7,5.8-1.2
						C2045.4,417.7,2044.9,415.1,2042.9,413.8z"/>
					<path class="st1" d="M2028.6,449.3c-2.3,0-4.2,1.9-4.2,4.2s1.9,4.2,4.2,4.2c2.3,0,4.2-1.9,4.2-4.2S2030.9,449.3,2028.6,449.3z"
						/>
					<path class="st1" d="M2035.9,490.5c-1.6,1.6-1.6,4.3,0,5.9s4.3,1.6,5.9,0s1.6-4.3,0-5.9
						C2040.2,488.8,2037.6,488.8,2035.9,490.5z"/>
					<path class="st1" d="M2062.1,516.7c-1.6,1.6-1.6,4.3,0,5.9c1.6,1.6,4.3,1.6,5.9,0c1.6-1.6,1.6-4.3,0-5.9
						S2063.8,515.1,2062.1,516.7z"/>
				</g>
			</g>
			<g>
				<path class="st1" d="M2100.3,453.5c0-2.3,1.9-4.2,4.2-4.2s4.2,1.9,4.2,4.2s-1.9,4.2-4.2,4.2
					C2102.1,457.7,2100.3,455.8,2100.3,453.5z"/>
				<g>
					
						<rect x="2100.3" y="440.9" transform="matrix(0.7866 -0.6175 0.6175 0.7866 178.671 1402.2063)" class="st1" width="35.1" height="3.4"/>
				</g>
			</g>
		</g>
		<g>
			<g>
				<path class="st1" d="M769.4,1458.5c0,0,49.4-57.7,3-94.3c0,0-33.9-20.5-61.5-18.9c0,0,39.2,65.7,26.5,72.2s-38.4-76.3-38.4-76.3
					s-77.1-7.5-101.9,4.4c0,0,65.9,54,52,57.2s-85.1-49.7-85.1-49.7s-71.8,12.2-68,56s28.6,57.3,39.4,56.1s74.5-25.4,75.8-16.5
					s-36.9,38-63.7,39.4c0,0,50.6,55.8,84.2,39.7c33.6-16.1,36.5-41.6,57.5-51.2s38.9-9.6,30.2,0.2c-8.7,9.8-46.6,19.3-58.6,40.5
					s-22.7,35.5,12.1,30.3s91.4-30.7,93.8-59.9C769.4,1458.5,769.4,1458.5,769.4,1458.5z"/>
				<g>
					<g>
						<path class="st2" d="M531.3,1410.3c0,0,195-7.5,238,48.2c0,0,9.5,28.5,38.8,54.5l4.6,12.4c0,0-33.8-35.6-45.9-37.8
							C766.9,1487.7,785.8,1418.6,531.3,1410.3z"/>
						<path class="st2" d="M808.2,1513c0,0,41.8,30.9,44.8,86.2l-7.6,0.7c0,0-13.4-57.2-37.5-79.5S808.2,1513,808.2,1513z"/>
					</g>
				</g>
			</g>
			<g>
				<path class="st1" d="M942.3,1386c0,0-78.7-44-42-103.8c0,0,29.4-36.7,60.8-46.1c0,0-16.8,89.1,0,91.2s11.5-100.7,11.5-100.7
					s82.9-39.9,115.4-36.7c0,0-51.4,87-34.6,85c16.8-2.1,74.5-90.2,74.5-90.2s85-15.7,98.6,34.6s-8.4,75.5-21,78.7
					s-93.3,2.1-91.2,12.6c2.1,10.5,56.6,27.3,87,17.8c0,0-33.6,82.9-77.6,78.7s-57.7-31.5-85-33.6c-27.3-2.1-47.2,5.2-33.6,12.6
					c13.6,7.3,59.8,2.4,81.8,21.1s39.9,30.3-1,38.7s-114.3,3.1-129-28.3S942.3,1386,942.3,1386z"/>
				<g>
					<g>
						<path class="st2" d="M1187.7,1235c0,0-220.2,71.3-245.4,151c0,0,1,35.7-21,76.6v15.7c0,0,23.1-53.5,35.7-60.8
							C956.9,1417.5,907.6,1348.2,1187.7,1235z"/>
						<path class="st2" d="M921.3,1462.6c0,0-34,51.6-14.6,114.4l8.7-2.3c0,0-8.5-69.2,9.3-103.9
							C942.5,1435.9,921.3,1462.6,921.3,1462.6z"/>
					</g>
				</g>
			</g>
			<g>
				<path class="st2" d="M817.1,1325.2c0,0,103.7-58.1,55.3-136.9c0,0-38.7-48.4-80.2-60.8c0,0,22.1,117.5,0,120.3
					S777,1115.1,777,1115.1s-109.2-52.5-152.1-48.4c0,0,67.7,114.7,45.6,112c-22.1-2.8-98.2-118.9-98.2-118.9s-112-20.7-130,45.6
					c-18,66.4,11.1,99.5,27.6,103.7c16.6,4.1,123,2.8,120.3,16.6c-2.8,13.8-74.7,35.9-114.7,23.5c0,0,44.2,109.2,102.3,103.7
					s76-41.5,112-44.2c35.9-2.8,62.2,6.9,44.2,16.6s-78.8,3.2-107.8,27.9c-29,24.7-52.5,39.9,1.4,50.9c53.9,11.1,150.7,4.1,170-37.3
					C817.1,1325.2,817.1,1325.2,817.1,1325.2z"/>
				<g>
					<path class="st2" d="M493.6,1126.2c0,0,290.3,94,323.5,199.1c0,0-1.4,47,27.6,100.9v20.7c0,0-30.4-70.5-47-80.2
						C797.8,1366.7,862.7,1275.5,493.6,1126.2z"/>
					<path class="st2" d="M844.8,1426.2c0,0,44.8,68,19.2,150.8l-11.5-3.1c0,0,11.2-91.2-12.2-137
						C816.8,1391,844.8,1426.2,844.8,1426.2z"/>
				</g>
			</g>
			<path class="st2" d="M820.6,1756.4c-112.2,0-203.1-90.9-203.1-203.1h406.2C1023.7,1665.5,932.8,1756.4,820.6,1756.4z"/>
			<path class="st1" d="M614.7,1766.7h411.8l0,0c0-13.8-11.2-25.1-25.1-25.1H639.8C625.9,1741.7,614.7,1752.9,614.7,1766.7
				L614.7,1766.7z"/>
			<rect x="612.9" y="1553.3" class="st1" width="417.5" height="6.2"/>
		</g>
		<g>
			<g>
				<path class="st15" d="M896.7,1024.8h955.9c9.5,0,17.1-7.7,17.1-17.1V997c0-9.5-7.7-17.1-17.1-17.1H896.7
					c-9.5,0-17.1,7.7-17.1,17.1v10.7C879.6,1017.1,887.3,1024.8,896.7,1024.8z"/>
				<g>
					<path class="st15" d="M913.9,1766.3l-0.5-0.1c-6.4-0.8-10.9-6.5-10.1-12.7l97.1-751.2l54.4,1.6l-130.5,754.9
						C923.5,1763.6,918.9,1766.9,913.9,1766.3z"/>
				</g>
				<g>
					<path class="st15" d="M1856.2,1766.3l0.5-0.1c6.4-0.8,10.9-6.5,10.1-12.7l-97.1-751.2l-54.4,1.6l130.5,754.9
						C1846.5,1763.6,1851.2,1766.9,1856.2,1766.3z"/>
				</g>
			</g>
		</g>
		<g>
			<g>
				
					<rect x="2456.1" y="1115.2" transform="matrix(0.9873 -0.1586 0.1586 0.9873 -156.3568 405.4233)" class="st16" width="11.4" height="134.1"/>
				<polygon class="st17" points="2447.5,1092.8 2445.7,1117 2456.9,1115.2 				"/>
			</g>
			<g>
				
					<rect x="2493.8" y="1187.7" transform="matrix(0.1827 -0.9832 0.9832 0.1827 919.7096 3493.1545)" class="st16" width="134.1" height="11.4"/>
				<polygon class="st17" points="2577.3,1104.2 2567.4,1126.4 2578.6,1128.5 				"/>
			</g>
			<g>
				
					<rect x="2479.6" y="1149" transform="matrix(0.1826 -0.9832 0.9832 0.1826 946.3102 3447.7156)" class="st16" width="134.1" height="11.4"/>
				<polygon class="st17" points="2563.2,1065.6 2553.2,1087.7 2564.4,1089.8 				"/>
			</g>
			<g>
				<rect x="2487.8" y="1171.1" class="st18" width="89.6" height="129.2"/>
				<rect x="2443" y="1171.1" class="st15" width="89.6" height="129.2"/>
			</g>
		</g>
		<g>
			<path class="st10" d="M2410.4,1732.8c-0.9,1.9-3,12.4-6.8,21l0,0c-2.2,5.2-5.1,9.7-8.6,11.3c-9.4,4.4-25.1-3.1-25.1-3.1
				s-27,3.1-29.6,1.9s-5.2-41.7-5.2-41.7s21-21.8,22.8-22.4c1.9-0.6,17.2,7.5,19.8,7.5s18-10,22.1-7.5
				C2404.1,1702.3,2411.9,1729.6,2410.4,1732.8z"/>
			<path class="st19" d="M2377.8,1707.2c0,0-4.7,10.6-6,11.5s-13.9-19-13.9-19C2359.9,1699.1,2375.2,1707.2,2377.8,1707.2z"/>
			<path class="st19" d="M2399.6,1710.2c0,0-19.2,17.7-18.9,19.4c0.3,1.7,20.7,13.5,21.5,13.1c0.7-0.4-4.4-13.9-4.1-16.2
				C2398.3,1724.3,2399.6,1710.2,2399.6,1710.2z"/>
			<path class="st19" d="M2410.4,1732.8c-0.9,1.9-3,12.4-6.8,21l0,0l0,0l2.3-19.8l-6-34.3
				C2404.1,1702.3,2411.9,1729.6,2410.4,1732.8z"/>
			<path class="st19" d="M2370,1762c0,0-27,3.1-29.6,1.9s-5.2-41.7-5.2-41.7s5.9,20.8,6,21.8s8.4-1.2,8.4-1.2L2370,1762z"/>
			<polygon class="st19" points="2342.2,1722.2 2345.2,1732.9 2351.3,1732.9 2346.8,1728.4 			"/>
		</g>
		<g>
			<path class="st10" d="M1241.6,1732.8c-0.9,1.9-3,12.4-6.8,21l0,0c-2.2,5.2-5.1,9.7-8.6,11.3c-9.4,4.4-25.1-3.1-25.1-3.1
				s-27,3.1-29.6,1.9s-5.2-41.7-5.2-41.7s21-21.8,22.8-22.4c1.9-0.6,17.2,7.5,19.8,7.5c2.6,0,18-10,22.1-7.5
				C1235.2,1702.3,1243.1,1729.6,1241.6,1732.8z"/>
			<path class="st19" d="M1209,1707.2c0,0-4.7,10.6-6,11.5s-13.9-19-13.9-19C1191,1699.1,1206.4,1707.2,1209,1707.2z"/>
			<path class="st19" d="M1230.8,1710.2c0,0-19.2,17.7-18.9,19.4c0.3,1.7,20.7,13.5,21.5,13.1s-4.4-13.9-4.1-16.2
				S1230.8,1710.2,1230.8,1710.2z"/>
			<path class="st19" d="M1241.6,1732.8c-0.9,1.9-3,12.4-6.8,21l0,0l0,0l2.3-19.8l-6-34.3
				C1235.2,1702.3,1243.1,1729.6,1241.6,1732.8z"/>
			<path class="st19" d="M1201.1,1762c0,0-27,3.1-29.6,1.9s-5.2-41.7-5.2-41.7s5.9,20.8,6,21.8s8.4-1.2,8.4-1.2L1201.1,1762z"/>
			<polygon class="st19" points="1173.3,1722.2 1176.3,1732.9 1182.5,1732.9 1177.9,1728.4 			"/>
		</g>
		<g>
			<path class="st10" d="M2494.8,1265.5c-0.8,2-2.4,12.8-5.7,21.7l0,0c-2,5.4-4.6,10.1-8.1,12c-9.3,5-25.7-1.8-25.7-1.8
				s-27.2,4.7-29.9,3.6s-7.7-42.1-7.7-42.1s20.1-23.3,21.9-24c1.9-0.7,17.9,6.6,20.6,6.5c2.7-0.1,17.7-11.2,22-8.9
				C2486.6,1234.8,2496.1,1262.2,2494.8,1265.5z"/>
			<path class="st19" d="M2460.2,1241.4c0,0-4.2,11-5.4,12c-1.3,1-15.1-18.5-15.1-18.5C2441.5,1234.2,2457.6,1241.5,2460.2,1241.4z"
				/>
			<path class="st19" d="M2482.5,1243.2c0,0-18.5,19.1-18.1,20.8s21.8,12.5,22.5,12.1s-5.2-13.9-5.1-16.2
				S2482.5,1243.2,2482.5,1243.2z"/>
			<path class="st19" d="M2494.8,1265.5c-0.8,2-2.4,12.8-5.7,21.7l0,0l0,0l1.2-20.2l-8-34.5
				C2486.6,1234.8,2496.1,1262.2,2494.8,1265.5z"/>
			<path class="st19" d="M2455.3,1297.5c0,0-27.2,4.7-29.9,3.6s-7.7-42.1-7.7-42.1s7.1,20.7,7.3,21.8s8.5-1.7,8.5-1.7L2455.3,1297.5
				z"/>
			<polygon class="st19" points="2424.9,1258.6 2428.5,1269.3 2434.8,1268.9 2429.9,1264.6 			"/>
		</g>
		<g>
			<path class="st10" d="M2340.9,1274.8c-0.7,1.4-1.9,8.6-4.4,14.8l0,0c-1.5,3.7-3.6,6.9-6.3,8.2c-7.2,3.5-19.9-0.9-19.9-0.9
				s-21.1,3.5-23.2,2.8c-2.1-0.7-5.9-28.3-5.9-28.3s15.6-16,17-16.5s13.9,4.3,16,4.1c2.1-0.1,13.7-7.8,17.1-6.2
				C2334.6,1254.2,2342,1272.6,2340.9,1274.8z"/>
			<path class="st20" d="M2314.2,1258.9c0,0-3.2,7.5-4.2,8.2s-11.7-12.3-11.7-12.3C2299.6,1254.3,2312.1,1259,2314.2,1258.9z"/>
			<path class="st21" d="M2331.4,1259.9c0,0-14.3,13.1-14.1,14.2s16.9,8.2,17.5,7.9c0.6-0.3-4-9.3-3.9-10.9
				C2331,1269.6,2331.4,1259.9,2331.4,1259.9z"/>
			<path class="st20" d="M2340.9,1274.8c-0.7,1.4-1.9,8.6-4.4,14.8l0,0l0,0l0.9-13.7l-6.2-23.2
				C2334.6,1254.2,2342,1272.6,2340.9,1274.8z"/>
			<path class="st21" d="M2310.3,1296.9c0,0-21.1,3.5-23.2,2.8c-2.1-0.7-5.9-28.3-5.9-28.3s5.5,13.9,5.7,14.6s6.6-1.3,6.6-1.3
				L2310.3,1296.9z"/>
			<polygon class="st21" points="2286.7,1270.9 2289.5,1278.1 2294.4,1277.8 2290.6,1275 			"/>
		</g>
	</g>
	<g id="palm">
		<path id="palm_1_" class="st12" d="M1506.7,956.8c0,0-54.5-15.7-69.6-11.3c-10.7,3.1-24.4,18.9-31.5,27.9
			c-2.1,2.6-0.2,6.5,3.2,6.5c9.1-0.1,23.9-0.7,31.6-4.7c7.3-3.8,18.1,4.6,30.2,4.7c9.3,0,21.2,0,21.2,0L1506.7,956.8z"/>
	</g>
	<g id="mins_3_" class="mins">
		<rect id="mins_1_" x="2102.7" y="401.4" class="st1" width="3.5" height="52.1"/>
		<rect id="mins_2_" x="2102.7" y="452.8" class="st22" width="3.5" height="52.1"/>
	</g>
</g>
<g id="Layer_1">
</g>
</svg>
