<?xml version="1.0" encoding="utf-8"?>
<!-- Generator: Adobe Illustrator 24.0.1, SVG Export Plug-In . SVG Version: 6.00 Build 0)  -->
<svg version="1.1" id="Layer_1" xmlns="http://www.w3.org/2000/svg" xmlns:xlink="http://www.w3.org/1999/xlink" x="0px" y="0px"
	 viewBox="0 0 612 760.69" style="enable-background:new 0 0 612 760.69;" xml:space="preserve">
<style type="text/css">
	.st0{fill-rule:evenodd;clip-rule:evenodd;fill:#E2E2E2;}
	.st1{fill-rule:evenodd;clip-rule:evenodd;fill:#05351E;}
	.st2{fill-rule:evenodd;clip-rule:evenodd;fill:#A3A3A2;}
	.st3{fill-rule:evenodd;clip-rule:evenodd;fill:none;stroke:#A3A3A2;stroke-width:3.9024;stroke-miterlimit:10;}
	.st4{fill-rule:evenodd;clip-rule:evenodd;fill:#F7B319;}
	.st5{fill-rule:evenodd;clip-rule:evenodd;fill:#FBC0AA;}
	.st6{fill-rule:evenodd;clip-rule:evenodd;fill:#FFFFFF;}
	.st7{clip-path:url(#SVGID_2_);fill-rule:evenodd;clip-rule:evenodd;fill:#081735;}
	.st8{clip-path:url(#SVGID_4_);fill-rule:evenodd;clip-rule:evenodd;fill:#081735;}
	.st9{clip-path:url(#SVGID_6_);fill-rule:evenodd;clip-rule:evenodd;fill:#081735;}
	.st10{fill-rule:evenodd;clip-rule:evenodd;fill:#AA854C;}
	.st11{fill-rule:evenodd;clip-rule:evenodd;fill:#9F7741;}
	.st12{fill-rule:evenodd;clip-rule:evenodd;fill:#081735;}
	.st13{fill:#010101;}
	.st14{fill:#E6343E;}
	.st15{fill-rule:evenodd;clip-rule:evenodd;fill:url(#SVGID_7_);}
	.st16{opacity:0.51;fill:url(#SVGID_8_);}
	.st17{opacity:0.51;fill:url(#SVGID_9_);}
	.st18{fill:url(#SVGID_10_);}
	.st19{clip-path:url(#SVGID_12_);fill-rule:evenodd;clip-rule:evenodd;fill:#081735;}
	.st20{fill-rule:evenodd;clip-rule:evenodd;fill:#821518;}
	.st21{clip-path:url(#SVGID_14_);fill-rule:evenodd;clip-rule:evenodd;fill:#081735;}
	.st22{clip-path:url(#SVGID_16_);fill-rule:evenodd;clip-rule:evenodd;fill:#010101;}
	.st23{fill-rule:evenodd;clip-rule:evenodd;fill:#091735;}
	.st24{fill:none;}
	.st25{fill:#563315;}
	.st26{fill:url(#SVGID_17_);}
	.st27{fill:url(#SVGID_18_);}
	.st28{fill:#4E2566;}
	.st29{fill:#F7B319;}
	.st30{fill-rule:evenodd;clip-rule:evenodd;fill:url(#SVGID_19_);}
	.st31{fill:#4C3013;}
	.st32{fill:#4E3213;}
	.st33{fill:#5E3C16;}
	.st34{fill:#05351E;}
	.st35{fill:#FFFFFF;}
	.st36{font-family:'CoolveticaRg-Regular';}
	.st37{font-size:48.285px;}
	.st38{letter-spacing:1;}
	.st39{font-family:'GillSansStd-Light';}
	.st40{font-size:19.314px;}
</style>
<g id="cortina_inf">
	<rect x="13.06" y="406.01" class="st0" width="214.91" height="318.06"/>
	<rect y="723.25" class="st1" width="245.13" height="21.26"/>
</g>
<g id="cortina_sup">
	<rect x="347.68" y="317.44" class="st1" width="245.13" height="21.26"/>
	<rect x="361.01" y="0.2" class="st0" width="214.91" height="317.24"/>
	<polygon class="st2" points="575.92,133.85 470.25,133.85 361.01,133.85 361.01,0.2 575.92,0.2 	"/>
	<line class="st3" x1="468.47" y1="169.33" x2="468.47" y2="114.26"/>
	<circle class="st3" cx="468.47" cy="175.86" r="6.54"/>
</g>
<g id="lean">
	<rect x="347.68" y="723.25" class="st1" width="245.13" height="21.26"/>
	<rect x="361.01" y="406.01" class="st4" width="214.91" height="318.06"/>
	<path class="st5" d="M416.24,603.26l-25.96,120.81h-28.15l17.48-125.48L416.24,603.26z"/>
	<path class="st5" d="M522.43,588.8l25.46,135.27h25.33l-17.07-150.11L522.43,588.8z"/>
	<path class="st6" d="M464.91,531.84c0,0-50.72-19.49-66.53-3.7c-15.81,15.79-24.3,70.45-24.3,70.45l42.16,9.36L411,724.07l116.57,0
		l-0.24-120.91l35.54-22.69c0,0-13.61-41.27-23.65-53.06C529.18,515.63,512.6,505.38,464.91,531.84z"/>
	<path class="st5" d="M364.92,719.71c-1.45,0.98-24.77,9.25-27.23,10.82c-3.2,2.04-7.85,18.11-8.8,23.97
		c-0.95,5.87,16.07,9.12,23.36,1.47l9.88-14.28c0,0,22.39-3.23,27.05-4.13c6.15-1.18,3.23-23.18,3.23-23.18
		S366.37,718.74,364.92,719.71z"/>
	<g>
		<defs>
			<path id="SVGID_1_" d="M364.92,719.71c-1.45,0.98-24.77,9.25-27.23,10.82c-3.2,2.04-7.85,18.11-8.8,23.97
				c-0.95,5.87,16.07,9.12,23.36,1.47l9.88-14.28c0,0,22.39-3.23,27.05-4.13c6.15-1.18,3.23-23.18,3.23-23.18
				S366.37,718.74,364.92,719.71z"/>
		</defs>
		<clipPath id="SVGID_2_">
			<use xlink:href="#SVGID_1_"  style="overflow:visible;"/>
		</clipPath>
		<path class="st7" d="M342.53,763.58l-0.01-0.07c-0.03-0.13,0.12-0.25,0.18-0.37c0.51-1.07,1.02-2.4,1.64-3.86
			c2.22-5.29,5.02-12.55,7.21-17.44c1.27-2.85,2.47-4.89,3.18-5.48c0.62-0.48,1.9-1.13,3.45-1.76c2.89-1.17,6.66-2.38,8.01-2.84
			c0.11-0.05,0.24,0,0.29,0.12s-0.01,0.24-0.12,0.29c-1.1,0.56-3.93,1.96-6.43,3.32c-1.71,0.93-3.24,1.83-3.86,2.43
			c-0.25,0.24-0.52,0.78-0.89,1.5c-0.57,1.12-1.26,2.65-2.03,4.42c-1.97,4.49-4.45,10.47-6.7,15.12c-0.32,0.67-0.63,1.32-0.97,1.92
			c-0.59,1.06-1.2,1.96-1.74,2.74c-0.11,0.15-0.15,0.4-0.32,0.44l-0.09,0.03c-0.02-0.05-0.1-0.11-0.27-0.18
			c-0.04,0.06-0.12,0.08-0.19,0.04c-0.06-0.04-0.08-0.12-0.04-0.19C342.68,763.65,342.59,763.6,342.53,763.58z"/>
		<path class="st7" d="M336.13,763.72c0.16-0.22,0.35-0.35,0.5-0.63c0.79-1.43,1.49-3.65,2.59-6.06c1.42-3.1,3.06-6.7,4.67-10.02
			c2.48-5.13,4.77-9.67,5.46-11.04c0.28-0.55,1.24-1.25,2.42-2.03c1.07-0.71,2.34-1.44,3.59-2.1c0.64-0.34,1.26-0.67,1.85-0.98
			c0.69-0.37,1.3-0.71,1.86-0.95c0.21-0.06,0.33-0.27,0.27-0.48c-0.06-0.21-0.27-0.33-0.48-0.27c-0.71,0.11-1.55,0.29-2.45,0.58
			c-1.12,0.36-2.31,0.87-3.44,1.44c-2.55,1.29-4.7,2.96-5.22,3.97c-1.07,2.11-6.15,11.63-9.34,19.51c-1.27,3.13-2.2,6-2.61,8
			c-0.02,0.1-0.05,0.19-0.05,0.28c0.01,0.3,0.1,0.47,0.17,0.72c-0.01,0.06,0.03,0.12,0.09,0.14
			C336.06,763.82,336.12,763.78,336.13,763.72z"/>
		<path class="st7" d="M331,763.84c0.14-0.19,0.29-0.26,0.42-0.51c0.12-0.23,0.18-0.5,0.27-0.8c0.42-1.39,0.98-3.27,1.75-5.4
			c0.86-2.37,1.94-5.05,3-7.77c1.03-2.64,2.05-5.33,3.02-7.77c1.8-4.5,3.35-8.16,4.09-9.17c0.25-0.34,0.7-0.62,1.25-0.92
			c1.86-1,4.76-1.97,6.89-3.37c0.12-0.07,0.16-0.22,0.09-0.34c-0.07-0.12-0.22-0.16-0.34-0.09c-2.29,1.14-5.33,1.67-7.27,2.51
			c-0.83,0.36-1.47,0.81-1.85,1.29c-0.91,1.16-3.19,5.75-5.47,11.24c-1.02,2.46-2.06,5.1-2.96,7.68c-1.64,4.72-2.96,9.21-3.35,11.94
			c-0.03,0.25-0.09,0.49-0.06,0.71c0.05,0.34,0.18,0.5,0.29,0.75c-0.01,0.06,0.04,0.12,0.1,0.13
			C330.94,763.95,331,763.91,331,763.84z"/>
	</g>
	<path class="st5" d="M575.93,719.71c1.45,0.98,24.77,9.25,27.23,10.82c3.2,2.04,7.85,18.11,8.8,23.97
		c0.95,5.87-16.07,9.12-23.36,1.47l-9.88-14.28c0,0-22.39-3.23-27.05-4.13c-6.15-1.18-3.23-23.18-3.23-23.18
		S574.48,718.74,575.93,719.71z"/>
	<g>
		<defs>
			<path id="SVGID_3_" d="M575.93,719.71c1.45,0.98,24.77,9.25,27.23,10.82c3.2,2.04,7.85,18.11,8.8,23.97
				c0.95,5.87-16.07,9.12-23.36,1.47l-9.88-14.28c0,0-22.39-3.23-27.05-4.13c-6.15-1.18-3.23-23.18-3.23-23.18
				S574.48,718.74,575.93,719.71z"/>
		</defs>
		<clipPath id="SVGID_4_">
			<use xlink:href="#SVGID_3_"  style="overflow:visible;"/>
		</clipPath>
		<path class="st8" d="M597.53,764.08l-0.09-0.03c-0.17-0.05-0.21-0.29-0.32-0.44c-0.55-0.78-1.16-1.68-1.74-2.74
			c-0.33-0.6-0.64-1.25-0.97-1.92c-2.25-4.66-4.73-10.64-6.7-15.12c-0.77-1.77-1.46-3.3-2.03-4.42c-0.37-0.72-0.64-1.26-0.89-1.5
			c-0.61-0.6-2.15-1.5-3.86-2.43c-2.5-1.36-5.33-2.76-6.43-3.32c-0.11-0.05-0.17-0.18-0.12-0.29s0.18-0.16,0.29-0.12
			c1.35,0.47,5.12,1.67,8.01,2.84c1.55,0.63,2.84,1.28,3.45,1.76c0.71,0.59,1.9,2.63,3.18,5.48c2.19,4.89,4.99,12.15,7.21,17.44
			c0.62,1.47,1.13,2.8,1.64,3.86c0.06,0.13,0.21,0.24,0.18,0.37l-0.01,0.07c-0.06,0.02-0.16,0.07-0.29,0.18
			c0.04,0.06,0.02,0.15-0.04,0.19c-0.06,0.04-0.15,0.02-0.19-0.04C597.63,763.97,597.55,764.03,597.53,764.08z"/>
		<path class="st8" d="M604.94,763.67c0.07-0.25,0.17-0.42,0.17-0.72c0-0.09-0.03-0.19-0.05-0.28c-0.41-2-1.34-4.88-2.61-8
			c-3.19-7.88-8.28-17.41-9.34-19.51c-0.52-1.01-2.67-2.68-5.22-3.97c-1.13-0.57-2.32-1.08-3.44-1.44c-0.9-0.29-1.74-0.47-2.45-0.58
			c-0.21-0.06-0.42,0.06-0.48,0.27c-0.06,0.21,0.06,0.42,0.27,0.48c0.56,0.24,1.17,0.59,1.86,0.95c0.59,0.31,1.21,0.63,1.85,0.98
			c1.24,0.67,2.51,1.39,3.59,2.1c1.18,0.78,2.14,1.48,2.42,2.03c0.69,1.37,2.97,5.91,5.46,11.04c1.61,3.33,3.25,6.92,4.67,10.02
			c1.1,2.41,1.8,4.63,2.59,6.06c0.15,0.28,0.34,0.41,0.5,0.63c0.01,0.06,0.07,0.1,0.14,0.09
			C604.92,763.8,604.96,763.74,604.94,763.67z"/>
		<path class="st8" d="M610.08,763.82c0.11-0.25,0.24-0.41,0.29-0.75c0.03-0.22-0.03-0.45-0.06-0.71c-0.38-2.73-1.7-7.22-3.35-11.94
			c-0.9-2.58-1.94-5.22-2.96-7.68c-2.28-5.49-4.56-10.09-5.47-11.24c-0.38-0.48-1.01-0.93-1.85-1.29c-1.94-0.84-4.98-1.37-7.27-2.51
			c-0.12-0.07-0.27-0.03-0.34,0.09c-0.07,0.12-0.03,0.27,0.09,0.34c2.13,1.41,5.03,2.37,6.89,3.37c0.55,0.3,1,0.58,1.25,0.92
			c0.73,1.01,2.29,4.67,4.09,9.17c0.98,2.44,1.99,5.13,3.02,7.77c1.06,2.73,2.14,5.4,3,7.77c0.77,2.13,1.33,4.01,1.75,5.4
			c0.09,0.29,0.14,0.57,0.27,0.8c0.13,0.25,0.28,0.32,0.42,0.51c0.01,0.06,0.06,0.11,0.13,0.1
			C610.04,763.94,610.08,763.88,610.08,763.82z"/>
	</g>
	<path class="st5" d="M431.09,472.7c-1.64,10.02,0.56,21.21,0.56,21.21s-10.48-5.35-10,8.3c0.36,9.99,10.55,16.21,14.25,10.93
		c0,0,4.48,15.48,11.48,17.77l1.12,10.03c0,0,3.59,15.94,19.96,19.24c0,0,15-4.08,18.64-22.28l0.09-13.69c0,0,6.96-6.19,9.51-16.83
		c0,0,4.58,5.01,10.35-8.86c5.39-12.95-5.61-18.77-10.05-9.08c0,0,3.82-14.98-3.6-29.83C486.47,445.71,435.48,445.94,431.09,472.7z"
		/>
	<g>
		<defs>
			<path id="SVGID_5_" d="M431.09,472.7c-1.64,10.02,0.56,21.21,0.56,21.21s-10.48-5.35-10,8.3c0.36,9.99,10.55,16.21,14.25,10.93
				c0,0,4.48,15.48,11.48,17.77l1.12,10.03c0,0,3.59,15.94,19.96,19.24c0,0,15-4.08,18.64-22.28l0.09-13.69
				c0,0,6.96-6.19,9.51-16.83c0,0,4.58,5.01,10.35-8.86c5.39-12.95-5.61-18.77-10.05-9.08c0,0,3.82-14.98-3.6-29.83
				C486.47,445.71,435.48,445.94,431.09,472.7z"/>
		</defs>
		<clipPath id="SVGID_6_">
			<use xlink:href="#SVGID_5_"  style="overflow:visible;"/>
		</clipPath>
		<path class="st9" d="M441.64,529.11c0,0,13.19,5.63,25.54,5.23c12.03-0.39,26.98-16.32,26.98-16.32s-10.06,23.73-25.73,25.03
			C453.55,544.3,441.64,529.11,441.64,529.11z"/>
	</g>
	<path class="st10" d="M488.31,463.98c0,0-9.01,12.82-30.07,6.12c0,0-11.02,13.23-32.88,4.21c0,0-20.87-14.68,1.64-36.78
		c22.5-22.1,30.07,7.77,46.64-0.49c16.58-8.26,27.38,7.16,26.25,13.46c0,0,16.86,8.46,4.1,34.28c0,0-4.83-0.9-7.05,5.6l-0.14,3.72
		C496.8,494.1,482.64,485.32,488.31,463.98z"/>
	<path class="st11" d="M426.59,471.12l4.49,4.28c-0.82,6.49,1.13,19.62,1.13,19.62c-1.37-2.07-5.57-2.03-5.57-2.03
		C420.16,476.2,426.59,471.12,426.59,471.12z"/>
	<path class="st12" d="M423.8,500.51c0.1-0.05,0.1,0.02,0.18-0.05c0.23-0.2,0.39-0.42,0.64-0.6c0.48-0.42,0.94-0.5,1.38-0.42
		c0.76,0.15,1.42,0.84,2.01,1.49c0.93,0.93,1.64,2.21,2.23,3.58c0.43,1.01,0.76,2.08,1.11,3.11c0.4,1.15,0.84,2.21,1.13,3.2
		c0.01,0.09,0.09,0.15,0.19,0.14c0.09-0.01,0.15-0.1,0.14-0.19c0.01-1.07,0.03-2.25-0.16-3.48c-0.12-0.76-0.35-1.51-0.6-2.26
		c-0.67-2-1.68-3.86-2.99-5.16c-0.87-0.78-1.89-1.54-2.91-1.6c-0.73-0.04-1.47,0.19-2.15,0.99c-0.19,0.25-0.39,0.48-0.49,0.76
		c-0.04,0.11-0.13,0.23-0.08,0.34c0.06,0.13,0.01,0.03,0.14,0.11c-0.01,0.06,0.03,0.12,0.09,0.14
		C423.73,500.62,423.79,500.57,423.8,500.51z"/>
	<path class="st12" d="M430.69,503.35c-0.49-1.1-1.34-1.55-2.16-1.48c-0.83,0.07-1.63,0.74-2.1,1.83c-0.32,0.9-0.37,1.83-0.17,2.73
		c0.19,0.85,0.59,1.66,1.09,2.39c0.07,0.11,0.21,0.15,0.32,0.08c0.11-0.07,0.15-0.21,0.09-0.32c-0.36-0.72-0.59-1.5-0.69-2.29
		c-0.09-0.75-0.03-1.5,0.28-2.22c0.27-0.76,0.76-1.23,1.31-1.37c0.6-0.15,1.26,0.06,1.83,0.77c0.03,0.05,0.1,0.07,0.16,0.04
		C430.71,503.47,430.73,503.4,430.69,503.35z"/>
	<path class="st12" d="M506.73,492.89c0.07-0.1,0.1-0.09,0.12-0.21c0.01-0.09-0.05-0.18-0.07-0.26c-0.1-0.33-0.28-0.62-0.49-0.92
		c-0.73-1.02-1.62-1.37-2.49-1.32c-1.22,0.07-2.4,1.1-3.29,2.28c-1.24,1.72-1.96,3.64-2.31,5.65c-0.14,0.79-0.23,1.58-0.25,2.39
		c-0.02,1.19,0.1,2.37,0.22,3.55c0,0.07,0.05,0.12,0.12,0.12c0.07,0,0.12-0.05,0.12-0.12c0.13-1.16,0.32-2.3,0.51-3.46
		c0.19-1.13,0.4-2.25,0.74-3.32c0.44-1.39,1.07-2.71,2.02-3.91c0.54-0.7,1.2-1.29,1.9-1.58c0.64-0.27,1.32-0.29,2.04,0.34
		c0.28,0.22,0.43,0.52,0.69,0.76c0.08,0.07,0.09,0.02,0.19,0.07c0.02,0.06,0.08,0.1,0.14,0.08
		C506.71,493.01,506.75,492.95,506.73,492.89z"/>
	<path class="st12" d="M498.66,498.78c0,0.02,0.02,0.02-0.04-0.06c-0.07-0.09,0.01-0.22,0.02-0.33c0.16-1.22,0.97-2.16,2.02-2.63
		c0.69-0.31,1.5-0.43,2.25-0.28c0.5,0.1,0.96,0.32,1.37,0.63c0.12,0.07,0.16,0.22,0.1,0.34c-0.07,0.12-0.22,0.16-0.34,0.1
		c-0.4-0.15-0.81-0.18-1.23-0.2c-0.61-0.03-1.22,0.07-1.78,0.29c-0.85,0.34-1.57,0.94-1.84,1.87c-0.03,0.09,0,0.21-0.07,0.27
		c-0.14,0.14,0.06-0.01-0.14,0.02c-0.01,0.06-0.06,0.11-0.13,0.1c-0.06-0.01-0.11-0.06-0.1-0.13
		C498.67,498.74,498.66,498.77,498.66,498.78z"/>
	<path class="st13" d="M473.05,506.69c3.09,3.45,0.05,14.43-11.6,16.06c-11.65,1.63-14.92-10.43-13.28-13.18
		c2.24-3.75,8.52-0.9,12.78-1.6C465.21,507.27,470.01,503.3,473.05,506.69z"/>
	<path class="st14" d="M457.37,512.91c-2.27,2.07-3.78,4.95-4.27,7.98c2.12,1.49,4.96,2.34,8.64,1.83
		c8.35-1.17,12.27-7.13,12.7-11.69c-1.08-0.58-2.23-1.04-3.42-1.35C466.3,508.45,460.97,509.63,457.37,512.91z"/>
	<path class="st13" d="M466,489.01c-0.36-0.17-0.38-1.17,0.35-2.57c0.37-0.7,0.95-1.48,1.85-2.18c0.89-0.68,2.22-1.25,3.65-1.18
		c1.44,0.05,2.66,0.66,3.51,1.32c0.86,0.66,1.45,1.38,1.87,2c0.83,1.26,1.05,2.18,0.74,2.44c-0.32,0.27-1.15-0.2-2.26-0.96
		c-1.1-0.74-2.56-1.78-3.97-1.8c-1.4-0.09-2.75,0.85-3.72,1.67C467.05,488.56,466.39,489.2,466,489.01z"/>
	<path class="st13" d="M450.61,490.71c-0.32,0.29-1.13-0.13-2.3-0.64c-1.16-0.51-2.72-1.03-4.04-0.54c-1.35,0.42-2.45,1.83-3.3,2.85
		c-0.85,1.04-1.5,1.73-1.89,1.56c-0.37-0.16-0.42-1.1,0.01-2.55c0.23-0.72,0.59-1.57,1.23-2.45c0.63-0.87,1.62-1.8,2.99-2.26
		c1.35-0.48,2.79-0.31,3.84,0.09c1.06,0.41,1.85,1,2.4,1.57C450.64,489.48,450.9,490.45,450.61,490.71z"/>
	<linearGradient id="SVGID_7_" gradientUnits="userSpaceOnUse" x1="454.4628" y1="497.1715" x2="461.5919" y2="497.1715">
		<stop  offset="0" style="stop-color:#ED7885;stop-opacity:0.4"/>
		<stop  offset="1" style="stop-color:#F5BC9D"/>
	</linearGradient>
	<path class="st15" d="M460.82,493.03c0.38,1.24,1.07,6.79,0.62,8.26c-0.56,1.81-3.97,1.46-4.53,1.29c-2.3-0.68-2.45-1.7-2.45-2.47
		c0-1.54,3.03-7.13,3.51-7.8C458.54,491.51,460.21,491.02,460.82,493.03z"/>
	
		<linearGradient id="SVGID_8_" gradientUnits="userSpaceOnUse" x1="334.3628" y1="836.3653" x2="333.164" y2="848.0865" gradientTransform="matrix(0.9785 -0.2065 0.2065 0.9785 -21.3369 -257.5218)">
		<stop  offset="0" style="stop-color:#ED7885;stop-opacity:0.4"/>
		<stop  offset="1" style="stop-color:#F5BC9D"/>
	</linearGradient>
	<path class="st16" d="M488.62,496.37c0.39,3.2-3.56,6.31-8.82,6.95c-5.26,0.64-9.83-1.44-10.22-4.64c-0.39-3.2,3.56-6.31,8.82-6.95
		C483.66,491.1,488.24,493.17,488.62,496.37z"/>
	
		<linearGradient id="SVGID_9_" gradientUnits="userSpaceOnUse" x1="512.6484" y1="104.4108" x2="511.4496" y2="116.1322" gradientTransform="matrix(0.9722 -0.234 0.234 0.9722 -80.9224 514.6049)">
		<stop  offset="0" style="stop-color:#ED7885;stop-opacity:0.4"/>
		<stop  offset="1" style="stop-color:#F5BC9D"/>
	</linearGradient>
	<path class="st17" d="M452.14,500.44c0.48,3.19-3.38,6.41-8.62,7.19c-5.24,0.78-9.87-1.16-10.35-4.35
		c-0.48-3.19,3.38-6.41,8.62-7.19C447.03,495.31,451.66,497.26,452.14,500.44z"/>
	<path class="st12" d="M461.16,575.74c-0.14,0.58-0.25-0.09-0.12,0.48c0.01,0.03,0.04,0.05,0.07,0.07c0.55,0.48,1.22,0.75,1.85,1.05
		c0.58,0.27,1.18,0.5,1.78,0.68c2.55,0.77,5.15,0.81,7.57,0.19c2.23-0.57,4.35-1.69,6.12-3.47c1.03-1.04,1.92-2.3,2.7-3.77
		c0.04-0.07,0.02-0.15-0.05-0.19c-0.07-0.04-0.15-0.02-0.19,0.05c-0.92,1.31-1.96,2.37-3.04,3.28c-1.78,1.49-3.74,2.45-5.82,2.88
		c-2.74,0.57-5.62,0.13-8.49-1.01c-0.6-0.24-1.18-0.56-1.82-0.77c-0.03-0.01-0.06-0.03-0.09-0.02c-0.56,0.17,0.08-0.06-0.35,0.34
		c-0.06-0.03-0.13-0.01-0.16,0.04C461.08,575.64,461.1,575.71,461.16,575.74z"/>
	<path class="st12" d="M470.83,583.36l0.06-0.06c0.1-0.11,0.29-0.06,0.42-0.1c0.73-0.18,1.39-0.55,2.02-0.98
		c0.68-0.47,1.33-0.98,1.93-1.48c0.15-0.14,0.38-0.14,0.52,0.01c0.14,0.15,0.14,0.38-0.01,0.52c-0.75,0.8-1.56,1.71-2.53,2.31
		c-0.63,0.39-1.32,0.69-2.07,0.73c-0.07,0-0.15,0.04-0.2-0.01l-0.05-0.04c0.01-0.07,0-0.18-0.03-0.34c-0.06,0.01-0.12-0.04-0.12-0.1
		c0-0.06,0.04-0.12,0.11-0.13C470.88,583.51,470.87,583.41,470.83,583.36z"/>
</g>
<g id="guille">
	<rect x="13.06" y="0.2" class="st4" width="214.91" height="318.06"/>
	<rect y="317.44" class="st1" width="245.13" height="21.26"/>
	<g>
		<linearGradient id="SVGID_10_" gradientUnits="userSpaceOnUse" x1="46.1221" y1="174.2228" x2="181.4557" y2="174.2228">
			<stop  offset="0" style="stop-color:#7E4F23"/>
			<stop  offset="0.9928" style="stop-color:#4C3013"/>
		</linearGradient>
		<path class="st18" d="M159.6,202.53c33.97-0.92,29.07-106.46-19.86-114.93c-1.32-0.23-2.68,0.22-3.93,0.69v0l0,0
			c-8.31-3.4-30.3-4.01-44.3,6.85c-17.54,13.6-23,35.89-22.07,50.38c0.91,14.31,9.92,34.73-13.77,60.23
			c-23.86,25.7,4.51,56.59,4.51,56.59c3.93-8.3,20.73-41.21,24.32-45.92c8.96-11.73-13.89-16.92-5.86-16.88l8.84-0.2
			c1.22,0.15,7.46-0.18,12.1-3.15l0.96-0.35c0,0,24.91-0.09,25.16,5.28l2.03,0.99c0,0,11.92,5.63,16.09,7.19L159.6,202.53z"/>
	</g>
	<path class="st6" d="M110.61,184.88l7.96,4.6c10.41,4.47,20.76-6.14,28.51-10.32c7.57-4.09,16.48-4.66,24.31-0.79
		c9.56,5.5,25.53,54.84,26.59,59.67c-2.68,0.51-6.29,1.02-8.98,1.46c-4.7,0.77-20.84,4.88-20.84,4.88l-11.13,64.72
		c0,0-36.06,9.46-58.76,3.98c-5.24-1.27-13.95-67.67-13.95-67.67l-32.18-18.78c0,0,26.71-49.86,47.73-45.63
		C103.05,181.53,108.53,181.7,110.61,184.88z"/>
	<path class="st12" d="M84.85,249.34c0.46-1.22,1.6-4.03,2.15-5.25c1.6-3.54,3.5-6.99,5.08-10.02c1.02-1.98,1.97-3.99,2.87-6.03
		c2.1-4.71,4-9.52,6.27-14.14c0.06-0.12,0.02-0.26-0.1-0.33c-0.12-0.06-0.26-0.02-0.33,0.1c-2.9,5.13-5.35,10.51-8.1,15.72
		c-0.69,1.29-1.38,2.58-2.12,3.84c-1.93,3.35-4.38,7.17-6.17,11.16c-0.45,1,0.15-0.61-0.18,0.41
		C84.06,245.84,85,249.49,84.85,249.34z"/>
	<path class="st12" d="M161.28,253.47l-0.08-0.07c-0.07-0.06-0.04-0.18-0.06-0.27c-0.23-1.02-0.48-2.02-0.74-3.02
		c-0.46-1.8-0.98-3.55-1.48-5.31c-0.77-2.68-1.58-5.32-2.36-7.99c-1.08-3.71-2.03-7.46-2.85-11.35c-0.05-0.17,0.05-0.34,0.22-0.39
		c0.17-0.05,0.34,0.05,0.39,0.22c1.14,3.26,2.47,6.36,3.69,9.5c0.62,1.59,1.21,3.19,1.75,4.81c0.55,1.62,1.05,3.26,1.47,4.94
		c0.38,1.54,0.69,3.11,0.92,4.7c0.15,1.05,0.25,2.11,0.32,3.19c0.02,0.27,0.19,0.58,0.04,0.8l-0.08,0.12l-0.01-0.01
		c-0.12-0.04-0.33-0.01-0.44,0.05c-0.04,0.02-0.01,0.12-0.1,0.13c-0.09,0.01-0.09-0.09-0.13-0.1c-0.14-0.02-0.31,0.01-0.45,0.05
		L161.28,253.47z"/>
	<path class="st12" d="M114.53,221.4c-0.14,0.58-0.25-0.09-0.12,0.48c0.01,0.03,0.04,0.05,0.07,0.07c0.55,0.48,1.22,0.75,1.85,1.05
		c0.58,0.27,1.18,0.5,1.78,0.68c2.55,0.77,5.15,0.81,7.57,0.19c2.23-0.57,4.35-1.69,6.12-3.47c1.03-1.04,1.92-2.3,2.7-3.77
		c0.04-0.07,0.02-0.15-0.05-0.19c-0.07-0.04-0.15-0.02-0.19,0.05c-0.92,1.31-1.96,2.37-3.04,3.28c-1.78,1.49-3.74,2.45-5.82,2.88
		c-2.74,0.57-5.62,0.13-8.49-1.01c-0.6-0.24-1.18-0.56-1.82-0.77c-0.03-0.01-0.06-0.03-0.09-0.02c-0.56,0.17,0.08-0.06-0.35,0.34
		c-0.06-0.03-0.13-0.01-0.16,0.04C114.45,221.3,114.47,221.37,114.53,221.4z"/>
	<path class="st12" d="M124.2,229.02l0.06-0.06c0.1-0.11,0.29-0.06,0.42-0.1c0.73-0.18,1.39-0.55,2.02-0.98
		c0.68-0.47,1.33-0.98,1.93-1.48c0.15-0.14,0.38-0.14,0.52,0.01c0.14,0.15,0.14,0.38-0.01,0.52c-0.75,0.8-1.56,1.71-2.53,2.31
		c-0.63,0.39-1.32,0.69-2.07,0.73c-0.07,0-0.15,0.04-0.2-0.01l-0.05-0.04c0.01-0.07,0-0.18-0.03-0.34c-0.06,0.01-0.12-0.04-0.12-0.1
		c0-0.06,0.04-0.12,0.11-0.13C124.25,229.17,124.23,229.07,124.2,229.02z"/>
	<path class="st5" d="M159.67,246.05c0,0,11.94-3.05,24.64-5.72c4.09-0.86,9.94-1.39,9.94-1.39s4.71,47.74,3.72,60.58
		c-0.98,12.85-4.25,14.92-4.25,14.92c-8.57,2.35-95.16,5.85-95.16,5.85l-17.88,13.2l-6.78,18.12c-6.96,11.96-19.77,8.94-21.77,3
		c-2-5.95-0.14-28.87,3.79-34.32c3.92-5.45,32.45-15.17,32.45-15.17c50.91-23.24,78.94-19.78,78.94-19.78L159.67,246.05z"/>
	<g>
		<defs>
			<path id="SVGID_11_" d="M159.67,246.05c0,0,11.94-3.05,24.64-5.72c4.09-0.86,12.36-2.09,12.36-2.09s2.29,48.44,1.31,61.28
				c-0.98,12.85-4.25,14.92-4.25,14.92c-7.94,4.3-95.16,5.85-95.16,5.85l-17.88,13.2l-6.78,18.12c-6.96,11.96-19.77,8.94-21.77,3
				c-2-5.95-0.14-28.87,3.79-34.32c3.92-5.45,32.45-15.17,32.45-15.17c50.91-23.24,78.94-19.78,78.94-19.78L159.67,246.05z"/>
		</defs>
		<clipPath id="SVGID_12_">
			<use xlink:href="#SVGID_11_"  style="overflow:visible;"/>
		</clipPath>
		<path class="st19" d="M151.25,283.17c0.44,0.2,0.81,0.42,1.27,0.54c0.29,0.08,0.58,0.08,0.88,0.11c2.83,0.31,5.64,0.33,8.44,1.1
			c4.03,0.97,7.67,2.72,10.88,5.02c1.94,1.39,3.61,3.11,5.33,4.81c1.17,1.16,2.41,2.18,3.52,3.47c0.14,0.24,0.45,0.31,0.69,0.17
			c0.24-0.14,0.31-0.45,0.17-0.69c-0.67-1.66-1.34-3.25-2.36-4.66c-1.54-2.15-3.62-3.83-5.77-5.32c-3.51-2.44-7.58-4.08-11.99-4.94
			c-1.51-0.25-3-0.34-4.5-0.32c-1.74,0.02-3.47-0.07-5.21,0.15c-0.47,0.06-0.85,0.22-1.32,0.32c-0.06-0.01-0.12,0.04-0.13,0.1
			C151.14,283.1,151.19,283.16,151.25,283.17z"/>
		<path class="st19" d="M68.49,361.22c0.18-0.16,0.25-0.04,0.39-0.31c0.28-0.56,0.13-1.55,0.26-2.71c0.79-7.16,3.2-22.88,4.19-27.32
			c0.14-0.65,0.67-1.31,1.3-1.99c0.4-0.43,0.83-0.87,1.28-1.27c1.55-1.4,3.25-2.55,3.7-2.72c0.13-0.04,0.21-0.17,0.17-0.31
			c-0.04-0.13-0.17-0.21-0.31-0.17c-0.58,0.11-3.16,1.21-5.14,2.77c-1.29,1.01-2.25,2.26-2.51,3.36
			c-0.83,3.92-2.89,16.51-3.67,24.45c-0.24,2.42-0.34,4.41-0.31,5.6c0,0.12-0.03,0.24,0.02,0.32c0.15,0.27,0.2,0.17,0.41,0.31
			c0,0.06,0.06,0.11,0.12,0.11C68.44,361.34,68.49,361.28,68.49,361.22z"/>
		<path class="st19" d="M61.94,363.34c0.15-0.24,0.31-0.3,0.42-0.62c0.04-0.12,0.01-0.26,0.02-0.4c0.05-1.06,0.18-2.43,0.32-4.03
			c0.47-5.47,1.32-13.52,2.49-20.18c0.8-4.56,1.69-8.47,2.61-10.4c0.34-0.73,0.79-1.37,1.27-2c0.81-1.08,1.76-2.07,2.63-3.12
			c0.39-0.47,0.73-0.96,1.08-1.46c0.11-0.12,0.1-0.3-0.02-0.41c-0.12-0.11-0.3-0.09-0.41,0.02c-0.39,0.33-0.79,0.63-1.18,0.96
			c-0.92,0.77-1.83,1.57-2.66,2.44c-0.82,0.87-1.52,1.84-2.05,2.94c-1.41,2.96-2.87,10.46-3.89,18c-0.73,5.4-1.34,10.82-1.42,14.58
			c-0.03,1.16,0.03,2.16,0.09,2.96c0,0.05-0.01,0.1,0.01,0.15c0.12,0.31,0.28,0.36,0.46,0.58c0,0.06,0.06,0.11,0.12,0.11
			C61.89,363.45,61.94,363.4,61.94,363.34z"/>
		<path class="st19" d="M57.05,363.03c0.11-0.13,0.17-0.08,0.22-0.25c0.01-0.04-0.01-0.09-0.01-0.14c-0.03-0.4-0.04-0.87-0.06-1.38
			c-0.11-3.51,0.25-9.51,0.87-15.81c0.62-6.23,1.43-12.76,2.43-17.44c0.24-1.15,0.79-2.47,1.51-3.75c0.51-0.9,1.14-1.75,1.73-2.57
			c0.67-0.93,1.28-1.8,1.97-2.4c0.12-0.08,0.15-0.25,0.07-0.37c-0.08-0.12-0.25-0.15-0.37-0.07c-0.83,0.42-1.72,1.02-2.53,1.84
			c-0.31,0.31-0.59,0.66-0.86,1.02c-1.44,1.87-2.57,4.13-2.99,5.98c-1.22,5.63-2.33,13.89-2.78,21.17c-0.33,5.26-0.37,10,0.02,12.84
			c0.06,0.43,0.03,0.86,0.22,1.15c0.1,0.16,0.17,0.14,0.32,0.24c0.01,0.06,0.07,0.1,0.14,0.09
			C57.02,363.16,57.06,363.1,57.05,363.03z"/>
	</g>
	<rect x="154.75" y="221.07" class="st20" width="29.57" height="45.77"/>
	<path class="st20" d="M155.66,226.44c-3.98,1.4-8.39,3.11-11.24,5.57c-7.38,6.39-9.5,19.24-0.01,25.27
		c4.03,2.56,8.33,3.3,13.44,4.17c1.25,0.21,2.44-0.63,2.66-1.89c0.21-1.25-0.63-2.45-1.89-2.66c-4.44-0.75-8.23-1.28-11.74-3.51
		c-6.72-4.28-4.67-13.37,0.56-17.9c2.46-2.13,6.32-3.5,9.75-4.71c1.2-0.42,1.83-1.74,1.41-2.94
		C158.18,226.65,156.86,226.02,155.66,226.44z"/>
	<path class="st5" d="M56.63,229.38c0,0-11.51,24.12-18.63,61.22c-3.49,38.39,12.46,29.3,17.77,27.35
		c5.31-1.95,42.82-26.13,72.17-55.38c0,0,21.43-2.19,24.55-9.33c0,0,2.84-3.03,0.08-6.39c0,0,3.31-3.64-0.58-6.85
		c0,0,3.61-5.18-0.76-7.79c0,0-3.35,2.96-9.22,4.18l-1.12-3.82c0,0-6.7,0.51-17.42,14.29c0,0-31.44,12.01-42.83,16.52l3.59-18.04
		L56.63,229.38z"/>
	<g>
		<defs>
			<path id="SVGID_13_" d="M57.11,228.62c0,0-15.62,23.6-19.11,61.99c-3.49,38.39,12.46,29.3,17.77,27.35
				c5.31-1.95,42.03-23.71,72.17-55.38c0,0,21.43-2.19,24.55-9.33c0,0,2.84-3.03,0.08-6.39c0,0,3.31-3.64-0.58-6.85
				c0,0,3.61-5.18-0.76-7.79c0,0-3.35,2.96-9.22,4.18l-1.12-3.82c0,0-6.7,0.51-17.42,14.29c0,0-31.44,12.01-42.83,16.52l5.71-17.61
				L57.11,228.62z"/>
		</defs>
		<clipPath id="SVGID_14_">
			<use xlink:href="#SVGID_13_"  style="overflow:visible;"/>
		</clipPath>
		<path class="st21" d="M88.19,259.43c-0.29-0.25,0.06-0.19-0.31-0.28c-0.12-0.03-0.23,0.05-0.35,0.09
			c-1.47,0.46-2.91,0.97-4.37,1.49c-0.82,0.29-1.63,0.58-2.43,0.93c-0.81,0.36-1.57,0.78-2.34,1.21c-4.09,2.33-7.94,4.94-11.54,7.86
			c-2.41,1.95-4.71,4.03-6.89,6.23c-2.17,2.19-4.26,4.48-6.19,6.89c-2.88,3.6-5.43,7.44-7.88,11.37c-0.02,0.03-0.01,0.07,0.02,0.09
			c0.03,0.02,0.07,0.01,0.09-0.01c2.88-3.58,5.95-6.97,9.12-10.26c1.27-1.31,2.53-2.62,3.83-3.89c1.94-1.91,3.93-3.77,5.99-5.55
			c4.53-3.91,9.4-7.46,14.73-10.44c1.03-0.61,2.11-1.13,3.16-1.71c1.63-0.91,3.19-1.89,4.77-2.89c0.24-0.15,0.57-0.2,0.7-0.45
			c0.18-0.34,0-0.11-0.01-0.48c0.05-0.03,0.07-0.09,0.05-0.14C88.31,259.43,88.24,259.4,88.19,259.43z"/>
	</g>
	<path class="st5" d="M97.05,152.21c0,0-3.53,0.45-4.46-0.56c-2.8-3.04-6.75-2.73-7.86,1.64c-1.01,3.96-0.14,8.29,2.23,11.61
		c2.81,3.94,7.68,6.06,9.45,0.41c0.09-0.3,2.69,5.13,3.52,6.49c3.59,5.9,8.93,9.71,8.94,9.53c0.01-0.33,0.76,4.43,0.92,6.5
		c0.47,6.12,0.19,12.8,4.11,17.98c3.7,4.88,9.88,7.1,15.25,3.59c7.01-4.59,8.78-13.98,8.99-21.82c0.06-2.33,0.38-6.93,0.62-9.87
		c0.03-0.38,3.62-3.07,7.31-11.15c0.98-2.16,3.33-8.44,3.43-8.48c0.26-0.1,1.67,2.84,4.54,1.86c4.63-1.58,5.94-10.71,5.49-14.6
		c-0.36-3.11-2.45-6.48-5.79-3.93c-0.87,0.67-0.96,2.75-2.04,2.59c-2.16-0.32-5.4-11.8-6.45-12.73
		c-3.21-2.83-22.36-3.31-20.88-14.15C95.6,121.69,91.51,132.99,97.05,152.21z"/>
	<g>
		<defs>
			<path id="SVGID_15_" d="M94.94,152.62c0,0-1.42,0.04-2.35-0.97c-2.8-3.04-6.75-2.73-7.86,1.64c-1.01,3.96-0.14,8.29,2.23,11.61
				c2.81,3.94,7.68,6.06,9.45,0.41c0.09-0.3,2.69,5.13,3.52,6.49c3.59,5.9,8.93,9.71,8.94,9.53c0.01-0.33,0.76,4.43,0.92,6.5
				c0.47,6.12,0.19,12.8,4.11,17.98c3.7,4.88,9.88,7.1,15.25,3.59c7.01-4.59,8.78-13.98,8.99-21.82c0.06-2.33,0.38-6.93,0.62-9.87
				c0.03-0.38,3.62-3.07,7.31-11.15c0.98-2.16,3.33-8.44,3.43-8.48c0.26-0.1,1.67,2.84,4.54,1.86c4.63-1.58,5.94-10.71,5.49-14.6
				c-0.36-3.11-2.45-6.48-5.79-3.93c-0.87,0.67-0.96,2.75-2.04,2.59c-2.16-0.32-7.99-4.48-9.04-5.41
				c-3.21-2.83-4.14-8.09-4.69-12.09c-0.2-1.42-0.41-2.83-0.64-4.25c-0.11-0.68,0.24-2.34-0.38-2.03
				c-1.36,0.7-21.79,14.78-22.08,13.67C114.84,133.86,97.02,145.55,94.94,152.62z"/>
		</defs>
		<clipPath id="SVGID_16_">
			<use xlink:href="#SVGID_15_"  style="overflow:visible;"/>
		</clipPath>
		<path class="st22" d="M107.39,180.74c0.37,0.11,7.99,5.66,17.11,4.4c7.8-1.08,15.68-8.51,15.68-8.51s-7.55,14.4-15.91,14.8
			C113.58,191.94,107,180.56,107.39,180.74z"/>
	</g>
	<path class="st23" d="M87.07,157.35c0.04-0.13,0.1-0.21,0.13-0.34c0.23-1.01,0.68-1.78,1.48-2.1c0.83-0.33,1.84-0.15,2.51,0.71
		c0.5,0.64,0.78,1.34,1.01,2.06c0.4,1.28,0.45,2.66,0.76,3.98c0.15,0.62,0.39,1.18,0.65,1.76c0.06,0.21,0.27,0.33,0.48,0.27
		c0.21-0.06,0.33-0.27,0.27-0.48c-0.04-0.51,0-0.99-0.03-1.5c-0.08-1.21-0.24-2.43-0.53-3.6c-0.29-1.19-0.81-2.3-1.69-3.27
		c-1.1-1.19-2.62-1.34-3.79-0.74c-1,0.52-1.77,1.56-1.66,2.91c0,0.06-0.01,0.13,0.02,0.19c0.04,0.09,0.09,0.1,0.16,0.17
		c0.01,0.06,0.07,0.11,0.13,0.1C87.03,157.47,87.08,157.41,87.07,157.35z"/>
	<path class="st23" d="M157.53,148.18c0.08-0.14,0.14-0.22,0.18-0.38c0.27-1.43-0.78-2.52-1.74-2.96c-1.1-0.5-2.53-0.18-3.69,1.24
		c-0.71,0.88-1.18,1.98-1.48,3.15c-0.25,0.98-0.41,2.01-0.43,3.01c-0.02,0.7,0.04,1.37,0.1,2c0.01,0.22,0.19,0.4,0.41,0.39
		c0.22-0.01,0.4-0.19,0.39-0.41c0.03-0.6,0.1-1.25,0.17-1.91c0.09-0.92,0.2-1.88,0.45-2.79c0.27-1,0.68-1.95,1.3-2.7
		c0.75-0.93,1.61-1.18,2.35-0.92c0.72,0.26,1.09,1.01,1.54,1.98c0.06,0.13,0.15,0.18,0.23,0.31c0,0.06,0.06,0.11,0.12,0.11
		C157.49,148.29,157.54,148.24,157.53,148.18z"/>
	<path class="st24" d="M148.61,137.94"/>
	<g>
		<path class="st25" d="M125.08,118.03c-0.15-0.28-0.68-0.37-1.12-0.4c-0.46-0.03-0.93,0-1.4,0.05c-0.94,0.1-1.87,0.29-2.79,0.51
			c-1.84,0.45-3.65,1.05-5.42,1.74c-3.54,1.38-6.95,3.12-10.06,5.29c-1.55,1.09-3.01,2.3-4.3,3.68c-1.28,1.38-2.38,2.93-3.05,4.66
			c-0.67,1.73-0.83,3.64-0.38,5.43c0.21,0.9,0.6,1.74,0.95,2.65c0.19,0.44,0.34,0.9,0.49,1.36c0.15,0.46,0.31,0.91,0.43,1.38
			c0.53,1.86,0.88,3.78,0.93,5.73c0.06,1.94-0.14,3.88-0.52,5.78c-0.77,3.79-2.21,7.36-3.38,10.98c-1.19,3.61-2.09,7.32-2.44,11.11
			c-0.38,3.78-0.2,7.6,0.3,11.37l-0.39,0.06c-1.32-3.68-2.01-7.61-2.09-11.63c-0.01-2,0.09-4.02,0.36-6.02
			c0.29-1.99,0.71-3.96,1.17-5.87c0.47-1.91,1.07-3.75,1.55-5.54c0.49-1.79,0.9-3.52,1.22-5.18c0.63-3.34,0.42-6.5-0.4-9.75
			c-0.09-0.41-0.22-0.81-0.35-1.21c-0.12-0.41-0.25-0.81-0.41-1.21l-0.49-1.31c-0.22-0.58-0.41-1.19-0.56-1.82
			c-0.57-2.52-0.24-5.3,0.74-7.55c0.97-2.27,2.38-4.11,3.94-5.62c1.57-1.51,3.27-2.74,5.01-3.82c1.73-1.09,3.56-1.98,5.4-2.75
			c1.85-0.77,3.71-1.46,5.63-1.96c1.91-0.51,3.84-0.96,5.82-1.16c0.99-0.1,1.98-0.19,2.99-0.15c0.5,0.02,1.01,0.07,1.52,0.17
			c0.25,0.05,0.51,0.12,0.77,0.24c0.24,0.11,0.53,0.28,0.66,0.6L125.08,118.03z"/>
	</g>
	
		<linearGradient id="SVGID_17_" gradientUnits="userSpaceOnUse" x1="70.7097" y1="436.3256" x2="69.5109" y2="448.0468" gradientTransform="matrix(0.9785 -0.2065 0.2065 0.9785 -21.3369 -257.5218)">
		<stop  offset="0" style="stop-color:#ED7885;stop-opacity:0.4"/>
		<stop  offset="1" style="stop-color:#F5BC9D"/>
	</linearGradient>
	<path class="st26" d="M148.06,159.39c0.39,3.2-3.56,6.31-8.82,6.95c-5.26,0.64-9.83-1.44-10.22-4.64c-0.39-3.2,3.56-6.31,8.82-6.95
		C143.1,154.11,147.67,156.19,148.06,159.39z"/>
	
		<linearGradient id="SVGID_18_" gradientUnits="userSpaceOnUse" x1="262.7698" y1="-303.5678" x2="261.571" y2="-291.8464" gradientTransform="matrix(0.9722 -0.234 0.234 0.9722 -80.9224 514.6049)">
		<stop  offset="0" style="stop-color:#ED7885;stop-opacity:0.4"/>
		<stop  offset="1" style="stop-color:#F5BC9D"/>
	</linearGradient>
	<path class="st27" d="M113.75,162.3c0.48,3.19-3.38,6.41-8.62,7.19c-5.24,0.78-9.87-1.16-10.35-4.35
		c-0.48-3.19,3.38-6.41,8.62-7.19C108.64,157.16,113.27,159.11,113.75,162.3z"/>
	<path class="st28" d="M152.49,139.04c-1.43-0.98-3.41-0.86-5.22-0.69c-7.98,0.73-15.96,1.47-23.94,2.2l-0.26,1.61
		c-1.25-0.3-2.61-0.48-4.12-0.39c-1.18,0.07-2.26,0.35-3.27,0.72l-0.39-1.42c-7.44,0.45-14.89,0.89-22.33,1.34
		c-1.69,0.1-3.53,0.27-4.74,1.45c-1.21,1.18-1.04,3.73,0.6,4.1c0.3,0.07,0.61,0.06,0.88,0.2c0.58,0.3,0.66,1.09,0.67,1.74
		c0.11,4.78,1.42,9.87,5.09,12.93c4.19,3.49,10.68,3.2,15.2,0.17c6.71-4.5,6.29-15.85,6.29-15.85c0.74-0.16,1.5-0.29,2.34-0.32
		c1.02-0.08,2.04-0.05,3.01,0.02c0,0,0.98,10.68,8.67,14.77c5.01,2.66,12.14,1.56,16.16-2.57c3.53-3.62,4.28-8.89,3.81-13.66
		c-0.07-0.65-0.09-1.45,0.5-1.84c0.27-0.18,0.61-0.22,0.92-0.34C154.07,142.58,153.92,140.02,152.49,139.04z M102.56,161.09
		c-10.19-0.07-9.39-14.83-9.39-14.83l20.32-1.24C113.99,150.11,112.74,161.15,102.56,161.09z M139.92,158.32
		c-10.07,1.52-12.89-9.22-13.13-14.34l20.29-1.68C147.08,142.3,149.99,156.8,139.92,158.32z"/>
	<path class="st29" d="M91.51,146.02c0.03,0.28-0.49,0.57-1.16,0.55c-0.67-0.03-1.16-0.36-1.11-0.64c0.05-0.28,0.57-0.43,1.15-0.41
		C90.98,145.55,91.48,145.73,91.51,146.02z"/>
	<path class="st29" d="M148.8,141.43c-0.02-0.29,0.44-0.56,1.01-0.69c0.57-0.13,1.1-0.08,1.2,0.19c0.1,0.27-0.32,0.68-0.98,0.82
		C149.38,141.91,148.82,141.72,148.8,141.43z"/>
	
		<linearGradient id="SVGID_19_" gradientUnits="userSpaceOnUse" x1="112.7445" y1="282.3947" x2="119.449" y2="282.3947" gradientTransform="matrix(0.9966 -0.0823 0.0702 0.85 -15.8778 -71.9463)">
		<stop  offset="0" style="stop-color:#ED7885;stop-opacity:0.4"/>
		<stop  offset="1" style="stop-color:#F5BC9D"/>
	</linearGradient>
	<path class="st30" d="M122,155c0.44,0.96,1.45,5.34,1.12,6.55c-0.41,1.49-3.62,1.47-4.16,1.38c-2.2-0.36-2.41-1.17-2.46-1.79
		c-0.1-1.23,2.37-5.93,2.77-6.51C119.76,153.96,121.29,153.43,122,155z"/>
	<path class="st31" d="M165.22,217.91c-0.26,0.05-0.54-0.08-0.65-0.32c-0.11-0.26-0.03-0.55,0.21-0.7c0.08-0.07,0.81-0.72,0.43-2.55
		c-0.26-1.27-1.04-2.01-1.94-2.86c-1.02-0.97-2.18-2.07-2.6-4.1c-0.47-2.31,0.31-4.56,2.25-6.5c1.43-1.43,2.97-2.19,3.04-2.22
		c0.25-0.12,0.54-0.05,0.71,0.17c0.16,0.22,0.15,0.52-0.03,0.72c-0.02,0.02-2.06,2.33-1.47,5.21c0.3,1.49,1.19,2.64,2.13,3.86
		c0.96,1.25,1.95,2.54,2.29,4.22c0.74,3.61-4.11,5-4.32,5.06C165.24,217.9,165.23,217.91,165.22,217.91"/>
	<path class="st31" d="M174.1,218.5c-0.2,0.05-0.41-0.02-0.48-0.18c-0.07-0.16,0-0.36,0.19-0.47c0.06-0.05,0.65-0.51,0.45-1.7
		c-0.14-0.82-0.7-1.27-1.35-1.79c-0.74-0.59-1.57-1.26-1.79-2.57c-0.25-1.5,0.45-3.01,2.03-4.38c1.16-1.01,2.38-1.58,2.43-1.6
		c0.19-0.09,0.42-0.06,0.53,0.08c0.11,0.14,0.09,0.34-0.06,0.48c-0.02,0.02-1.68,1.63-1.37,3.49c0.16,0.96,0.78,1.68,1.44,2.44
		c0.67,0.77,1.37,1.57,1.55,2.66c0.39,2.34-3.38,3.49-3.54,3.53C174.13,218.49,174.12,218.5,174.1,218.5"/>
	<path class="st13" d="M130.35,152.87c-0.42-0.17-0.44-1.26,0.46-2.79c0.45-0.76,1.16-1.62,2.26-2.39c1.08-0.76,2.68-1.39,4.4-1.34
		c1.72,0.03,3.17,0.67,4.18,1.37c1.02,0.7,1.71,1.47,2.21,2.14c0.97,1.35,1.21,2.34,0.84,2.63c-0.39,0.3-1.37-0.19-2.68-1
		c-1.3-0.78-3.03-1.88-4.72-1.88c-1.68-0.07-3.31,0.96-4.49,1.87C131.61,152.37,130.8,153.07,130.35,152.87z"/>
	<path class="st13" d="M111.19,154.88c-0.41,0.28-1.34-0.25-2.67-0.91c-1.33-0.66-3.13-1.36-4.76-0.96
		c-1.66,0.32-3.14,1.74-4.27,2.76c-1.13,1.04-2,1.72-2.44,1.5c-0.42-0.21-0.38-1.23,0.32-2.74c0.36-0.75,0.89-1.63,1.75-2.52
		c0.86-0.87,2.15-1.78,3.83-2.15c1.67-0.39,3.37-0.07,4.57,0.46c1.22,0.55,2.08,1.26,2.68,1.91
		C111.37,153.56,111.57,154.62,111.19,154.88z"/>
	<path class="st13" d="M129.39,170.15c0.22,0.2-0.13,1.14-1.23,2.36c-0.56,0.59-1.32,1.27-2.34,1.78c-1.01,0.53-2.28,0.87-3.59,0.9
		c-1.31,0.04-2.61-0.24-3.64-0.74c-1.05-0.48-1.83-1.15-2.4-1.75c-1.12-1.24-1.42-2.23-1.18-2.41c0.26-0.21,1.02,0.41,2.23,1.16
		c1.21,0.75,2.9,1.52,4.94,1.43c2.04-0.03,3.72-0.85,4.94-1.63C128.33,170.49,129.14,169.92,129.39,170.15z"/>
	<g>
		<path class="st32" d="M158.65,142.87c-0.28-0.24-0.51-0.42-0.8-0.53c-0.25-0.12-0.53-0.18-0.8-0.23
			c-0.53-0.12-1.12-0.15-1.72-0.23c-0.59-0.1-1.24-0.15-1.9-0.28c-0.65-0.14-1.33-0.3-2.03-0.51c-0.7-0.22-1.38-0.54-2.1-0.9
			c-0.71-0.36-1.43-0.8-2.08-1.37c-1.33-1.09-2.43-2.65-3.07-4.29c-0.32-0.82-0.52-1.67-0.64-2.49l-0.02-0.16
			c-0.01-0.05,0.01,0.03,0.01,0.04c0.01,0.05,0.04,0.11,0.06,0.15c0.03,0.09,0.1,0.18,0.13,0.22c0.1,0.11,0.11,0.09,0.07,0.05
			c-0.1-0.11-0.46-0.33-0.89-0.52c-0.43-0.2-0.95-0.39-1.49-0.56c-2.21-0.71-4.79-1.24-7.35-2.06c-1.29-0.4-2.6-0.85-3.93-1.43
			c-1.32-0.59-2.67-1.28-3.93-2.34c-1.24-1.04-2.41-2.6-2.82-4.38c-0.44-1.78-0.16-3.48,0.31-4.91c0.49-1.44,1.21-2.66,1.97-3.81
			c0.78-1.14,1.59-2.21,2.5-3.18c1.79-1.97,3.72-3.74,5.76-5.36l0.28,0.27c-1.74,1.89-3.42,3.84-4.92,5.91
			c-1.48,2.08-2.84,4.29-3.5,6.72c-0.31,1.21-0.41,2.48-0.05,3.65c0.34,1.17,1.14,2.16,2.14,2.91c2.01,1.5,4.52,2.23,6.98,2.88
			c2.48,0.64,5.02,1.08,7.52,1.78c1.24,0.37,2.52,0.75,3.64,1.58c0.55,0.4,1.05,1.08,1.16,1.78c0.14,0.61,0.32,1.2,0.57,1.77
			c0.49,1.13,1.2,2.16,2.1,3.01c0.9,0.86,1.97,1.54,3.09,2.13c1.12,0.6,2.31,1.1,3.46,1.71c0.57,0.31,1.14,0.67,1.64,1.13
			c0.5,0.45,0.9,1.07,1.03,1.76L158.65,142.87z"/>
	</g>
	<g>
		<path class="st33" d="M161.13,113.26c3.55,3.86,6.2,8.49,8.34,13.25c0.27,0.6,0.56,1.19,0.8,1.8l0.71,1.83
			c0.49,1.22,0.91,2.46,1.32,3.7c0.43,1.24,0.77,2.51,1.11,3.77c0.35,1.26,0.69,2.53,0.96,3.82c0.26,1.29,0.53,2.57,0.72,3.87
			c0.18,1.3,0.47,2.59,0.55,3.9c0.25,2.62,0.43,5.25,0.37,7.89c-0.08,5.25-0.85,10.59-2.9,15.43l-0.25-0.06
			c1.13-5,1.37-10.17,1.12-15.28c-0.26-5.12-1.03-10.2-2.14-15.2c-1.08-5.01-2.5-9.94-4.28-14.75c-1.79-4.8-3.91-9.5-6.64-13.83
			L161.13,113.26z"/>
	</g>
</g>
<g id="descipcion_guille">
	<rect x="227.97" y="0.85" class="st34" width="364.84" height="338.5"/>
	<g>
		<text transform="matrix(1 0 0 1 346.5137 69.4721)" class="st35 st36 st37 st38">Guillermina</text>
		<g>
			<rect x="336.02" y="101.27" class="st24" width="233.13" height="209.63"/>
			<text transform="matrix(1 0 0 1 527.6436 114.9858)"><tspan x="0" y="0" class="st35 st39 st40">Hola! </tspan><tspan x="-151.44" y="30.8" class="st35 st39 st40">Desde pequeña soy una </tspan><tspan x="-185.26" y="61.59" class="st35 st39 st40">enamorada de las sorpresas. </tspan><tspan x="-188.12" y="92.39" class="st35 st39 st40">Diseñadora en Monofresco y </tspan><tspan x="-158.2" y="123.18" class="st35 st39 st40">fanática de los colores. Si </tspan><tspan x="-176.99" y="153.98" class="st35 st39 st40">queres, me podes decir Gui</tspan><tspan x="-157.08" y="184.78" class="st35 st39 st40">como hacen mis amigos.</tspan></text>
		</g>
	</g>
</g>
<g id="descripcion_lean">
	<rect x="-0.97" y="405.46" class="st34" width="364.84" height="338.5"/>
	<g>
		<g>
			<text transform="matrix(1 0 0 1 25.6349 471.6326)" class="st35 st36 st37 st38">Leandro</text>
		</g>
		<g>
			<rect x="27.49" y="505.88" class="st24" width="254.08" height="216.16"/>
			<text transform="matrix(1 0 0 1 27.4886 519.595)"><tspan x="0" y="0" class="st35 st39 st40">Hola! </tspan><tspan x="0" y="30.8" class="st35 st39 st40">Siempre que tengo una idea, la </tspan><tspan x="0" y="61.59" class="st35 st39 st40">motivación para concretarla </tspan><tspan x="0" y="92.39" class="st35 st39 st40">nunca falta.  Ahora es el </tspan><tspan x="0" y="123.18" class="st35 st39 st40">momento de realizar la tuya!. </tspan><tspan x="0" y="153.98" class="st35 st39 st40">Podes decirme Lean. </tspan><tspan x="0" y="184.78" class="st35 st39 st40">Nos vemos en tu diseño!</tspan></text>
		</g>
	</g>
</g>
</svg>
