<?xml version="1.0" encoding="utf-8"?>
<!-- Generator: Adobe Illustrator 24.0.1, SVG Export Plug-In . SVG Version: 6.00 Build 0)  -->
<svg version="1.1" id="Layer_1" xmlns="http://www.w3.org/2000/svg" xmlns:xlink="http://www.w3.org/1999/xlink" x="0px" y="0px"
	 viewBox="0 0 98.2 122.5" style="enable-background:new 0 0 98.2 122.5;" xml:space="preserve">
<style type="text/css">
	.st0{fill:#4E4E4F;}
	.st1{fill-rule:evenodd;clip-rule:evenodd;fill:#4E4E4F;}
</style>
<g id="Layer_1_1_">
</g>
<g>
	<g>
		<path class="st0" d="M5.8,15.9c0-0.9,0.8-1.7,1.7-1.7h7.4c-0.2-1.5-0.3-3-0.3-4.5H5.8c-2.4,0-4.3,1.9-4.3,4.3v33.8h4.2V15.9z"/>
		<path class="st0" d="M92.6,9.7H46.9c2.5,1.8,5.5,3.3,9.1,4.5h35c0.9,0,1.7,0.7,1.7,1.7v31.9h4.2V14C96.9,11.6,94.9,9.7,92.6,9.7z"
			/>
		<g>
			<path class="st0" d="M90.3,100c-0.1-0.1-0.2-0.2-0.3-0.2c-0.1,0-0.3-0.1-0.5-0.1c-0.4,0-0.7,0.1-0.8,0.3
				c-0.1,0.2-0.2,0.5-0.2,1.1v10.2c0,0.3,0,0.5,0,0.7c0,0.2,0.1,0.3,0.1,0.4c0.1,0.1,0.2,0.2,0.3,0.2c0.1,0,0.3,0.1,0.5,0.1
				c0.2,0,0.4,0,0.5-0.1c0.1,0,0.2-0.1,0.3-0.2c0.1-0.1,0.1-0.3,0.1-0.4c0-0.2,0-0.4,0-0.7v-10.2c0-0.3,0-0.5,0-0.7
				C90.4,100.3,90.4,100.1,90.3,100z"/>
			<path class="st0" d="M56.2,100.2c-0.1-0.1-0.2-0.2-0.3-0.2c-0.1,0-0.3-0.1-0.5-0.1h-0.9v4.5h1c0.4,0,0.6-0.1,0.7-0.2
				c0.1-0.2,0.2-0.4,0.2-0.9v-2.1c0-0.3,0-0.5,0-0.7C56.3,100.4,56.2,100.3,56.2,100.2z"/>
			<path class="st0" d="M21.2,100c-0.1-0.1-0.2-0.2-0.3-0.2c-0.1,0-0.3-0.1-0.5-0.1c-0.4,0-0.7,0.1-0.8,0.3
				c-0.1,0.2-0.2,0.5-0.2,1.1v10.2c0,0.3,0,0.5,0,0.7c0,0.2,0.1,0.3,0.1,0.4c0.1,0.1,0.2,0.2,0.3,0.2c0.1,0,0.3,0.1,0.5,0.1
				c0.2,0,0.4,0,0.5-0.1c0.1,0,0.2-0.1,0.3-0.2c0.1-0.1,0.1-0.3,0.1-0.4c0-0.2,0-0.4,0-0.7v-10.2c0-0.3,0-0.5,0-0.7
				C21.3,100.3,21.3,100.1,21.2,100z"/>
			<path class="st0" d="M92.6,80.3v7.9c0,0.9-0.8,1.7-1.7,1.7h-3.7H11.4H7.5c-0.9,0-1.7-0.7-1.7-1.7v-7.9H1.5v38
				c0,2.4,1.9,4.3,4.3,4.3h86.7c2.4,0,4.3-1.9,4.3-4.3v-38H92.6z M14.3,114.7h-1.8v-12h-0.1l-1.4,12h-2l-1.4-12.1H7.7v12.1H5.9V97.8
				h3.1l1.1,11.4h0.1l1.2-11.4h3V114.7z M23.6,111.4c0,0.8,0,1.4-0.1,1.9c-0.1,0.5-0.2,0.8-0.5,1.1c-0.2,0.3-0.6,0.4-1,0.5
				c-0.4,0.1-0.9,0.1-1.6,0.1c-0.6,0-1.2,0-1.6-0.1c-0.4-0.1-0.7-0.2-0.9-0.5c-0.2-0.3-0.4-0.6-0.5-1.1c-0.1-0.5-0.1-1.1-0.1-1.9
				v-10.2c0-0.8,0-1.4,0.1-1.9c0.1-0.5,0.2-0.8,0.5-1.1c0.2-0.3,0.5-0.4,0.9-0.5c0.4-0.1,0.9-0.1,1.6-0.1c0.6,0,1.2,0,1.6,0.1
				c0.4,0.1,0.7,0.2,1,0.5c0.2,0.3,0.4,0.6,0.5,1.1c0.1,0.5,0.1,1.1,0.1,1.9V111.4z M33.1,114.7h-2.3l-2.3-10.6h-0.1v10.6h-1.9V97.8
				H29l2.2,10.9h0.1V97.8h1.9V114.7z M42.3,111.4c0,0.8,0,1.4-0.1,1.9c-0.1,0.5-0.2,0.8-0.5,1.1c-0.2,0.3-0.6,0.4-1,0.5
				c-0.4,0.1-0.9,0.1-1.6,0.1c-0.6,0-1.2,0-1.6-0.1c-0.4-0.1-0.7-0.2-0.9-0.5c-0.2-0.3-0.4-0.6-0.5-1.1c-0.1-0.5-0.1-1.1-0.1-1.9
				v-10.2c0-0.8,0-1.4,0.1-1.9c0.1-0.5,0.2-0.8,0.5-1.1c0.2-0.3,0.5-0.4,0.9-0.5c0.4-0.1,0.9-0.1,1.6-0.1c0.6,0,1.2,0,1.6,0.1
				c0.4,0.1,0.7,0.2,1,0.5c0.2,0.3,0.4,0.6,0.5,1.1c0.1,0.5,0.1,1.1,0.1,1.9V111.4z M49.7,99.8h-2.2v2.5h2.1v2h-2.1v10.4h-2.2V97.8
				h4.4V99.8z M58.5,103c0,0.4,0,0.8-0.1,1.1c-0.1,0.3-0.2,0.5-0.3,0.7c-0.1,0.2-0.3,0.3-0.4,0.4c-0.2,0.1-0.3,0.1-0.5,0.2v0.1
				c0.2,0.1,0.4,0.1,0.6,0.2c0.2,0.1,0.3,0.2,0.4,0.4c0.1,0.2,0.2,0.4,0.3,0.7c0.1,0.3,0.1,0.7,0.1,1.2v6.8h-2.2v-7.1
				c0-0.5-0.1-0.8-0.2-1c-0.1-0.2-0.3-0.3-0.7-0.3h-1v8.4h-2.2V97.8h3.1c0.6,0,1.2,0,1.6,0.1c0.4,0.1,0.7,0.2,1,0.5
				c0.2,0.3,0.4,0.6,0.5,1.1c0.1,0.4,0.1,1,0.1,1.8V103z M65.8,114.7h-4.3V97.8h4.3v2h-2.1v2.5h2v2h-2v8.4h2.1V114.7z M74.7,111.4
				c0,0.8,0,1.4-0.1,1.9c-0.1,0.5-0.2,0.8-0.5,1.1c-0.2,0.3-0.5,0.4-1,0.5c-0.4,0.1-0.9,0.1-1.6,0.1c-0.6,0-1.1,0-1.5-0.1
				c-0.4-0.1-0.7-0.2-0.9-0.5c-0.2-0.2-0.4-0.6-0.5-1.1c-0.1-0.5-0.1-1.1-0.1-1.9V108h2.1v3.4c0,0.3,0,0.5,0,0.7
				c0,0.2,0.1,0.3,0.1,0.4c0.1,0.1,0.2,0.2,0.3,0.2c0.1,0,0.3,0.1,0.5,0.1c0.4,0,0.7-0.1,0.8-0.3c0.1-0.2,0.2-0.6,0.2-1.1v-2.6
				c0-0.5,0-0.8-0.1-1c-0.1-0.2-0.2-0.4-0.4-0.6c-0.1-0.1-0.3-0.2-0.5-0.3c-0.2-0.1-0.4-0.3-0.6-0.4c-0.2-0.1-0.4-0.3-0.7-0.4
				c-0.2-0.1-0.4-0.3-0.6-0.4c-0.3-0.2-0.5-0.4-0.6-0.6c-0.2-0.2-0.3-0.4-0.4-0.6c-0.1-0.2-0.1-0.5-0.2-0.7c0-0.3,0-0.6,0-1v-1.6
				c0-0.8,0-1.4,0.1-1.9c0.1-0.5,0.2-0.8,0.5-1.1c0.2-0.3,0.5-0.4,0.9-0.5c0.4-0.1,0.9-0.1,1.6-0.1c0.6,0,1.2,0,1.6,0.1
				c0.4,0.1,0.7,0.2,0.9,0.5c0.2,0.3,0.4,0.6,0.5,1.1c0.1,0.5,0.1,1.1,0.1,1.9v2.1h-2.1v-2.1c0-0.3,0-0.5,0-0.7
				c0-0.2-0.1-0.3-0.1-0.4c-0.1-0.1-0.2-0.2-0.3-0.2c-0.1,0-0.3-0.1-0.5-0.1c-0.2,0-0.4,0-0.5,0.1c-0.1,0-0.2,0.1-0.3,0.2
				c-0.1,0.1-0.1,0.2-0.1,0.4c0,0.2,0,0.4,0,0.7v1.7c0,0.3,0,0.6,0.1,0.8c0.1,0.2,0.2,0.3,0.5,0.5c0.2,0.2,0.5,0.3,0.9,0.5
				c0.4,0.2,0.8,0.4,1.2,0.8c0.3,0.2,0.6,0.4,0.8,0.6c0.2,0.2,0.3,0.4,0.4,0.6c0.1,0.2,0.2,0.5,0.2,0.8c0,0.3,0,0.7,0,1.2V111.4z
				 M83.6,105h-2.1v-3.8c0-0.3,0-0.5,0-0.7c0-0.2-0.1-0.3-0.1-0.4c-0.1-0.1-0.2-0.2-0.3-0.2c-0.1,0-0.3-0.1-0.5-0.1
				c-0.2,0-0.4,0-0.5,0.1c-0.1,0-0.2,0.1-0.3,0.2c-0.1,0.1-0.1,0.2-0.1,0.4c0,0.2,0,0.4,0,0.7v10.2c0,0.3,0,0.5,0,0.7
				c0,0.2,0.1,0.3,0.1,0.4c0.1,0.1,0.2,0.2,0.3,0.2c0.1,0,0.3,0.1,0.5,0.1c0.2,0,0.3,0,0.5-0.1c0.1,0,0.2-0.1,0.3-0.2
				c0.1-0.1,0.1-0.2,0.1-0.4c0-0.2,0-0.4,0-0.7v-3.9h2.1v3.9c0,0.8,0,1.4-0.1,1.9c-0.1,0.5-0.2,0.8-0.5,1.1
				c-0.2,0.2-0.5,0.4-0.9,0.5c-0.4,0.1-0.9,0.1-1.5,0.1c-0.6,0-1.2,0-1.6-0.1c-0.4-0.1-0.7-0.2-1-0.5c-0.2-0.3-0.4-0.6-0.5-1.1
				c-0.1-0.5-0.1-1.1-0.1-1.9v-10.2c0-0.8,0-1.4,0.1-1.9c0.1-0.5,0.3-0.8,0.5-1.1c0.2-0.3,0.6-0.4,1-0.5c0.4-0.1,0.9-0.1,1.5-0.1
				c0.6,0,1.1,0,1.5,0.1c0.4,0.1,0.7,0.2,0.9,0.5c0.2,0.3,0.4,0.6,0.5,1.1c0.1,0.5,0.1,1.1,0.1,1.9V105z M92.7,111.4
				c0,0.8,0,1.4-0.1,1.9c-0.1,0.5-0.2,0.8-0.5,1.1c-0.2,0.3-0.6,0.4-1,0.5c-0.4,0.1-0.9,0.1-1.6,0.1c-0.6,0-1.2,0-1.6-0.1
				c-0.4-0.1-0.7-0.2-0.9-0.5c-0.2-0.3-0.4-0.6-0.5-1.1c-0.1-0.5-0.1-1.1-0.1-1.9v-10.2c0-0.8,0-1.4,0.1-1.9
				c0.1-0.5,0.2-0.8,0.5-1.1c0.2-0.3,0.5-0.4,0.9-0.5c0.4-0.1,0.9-0.1,1.6-0.1c0.6,0,1.2,0,1.6,0.1c0.4,0.1,0.7,0.2,1,0.5
				c0.2,0.3,0.4,0.6,0.5,1.1c0.1,0.5,0.1,1.1,0.1,1.9V111.4z"/>
			<path class="st0" d="M40,100c-0.1-0.1-0.2-0.2-0.3-0.2c-0.1,0-0.3-0.1-0.5-0.1c-0.4,0-0.7,0.1-0.8,0.3c-0.1,0.2-0.2,0.5-0.2,1.1
				v10.2c0,0.3,0,0.5,0,0.7c0,0.2,0.1,0.3,0.1,0.4c0.1,0.1,0.2,0.2,0.3,0.2c0.1,0,0.3,0.1,0.5,0.1c0.2,0,0.4,0,0.5-0.1
				c0.1,0,0.2-0.1,0.3-0.2c0.1-0.1,0.1-0.3,0.1-0.4c0-0.2,0-0.4,0-0.7v-10.2c0-0.3,0-0.5,0-0.7C40.1,100.3,40.1,100.1,40,100z"/>
		</g>
	</g>
	<g>
		<path class="st1" d="M98.1,59.2C97.4,53,94,50,87.8,49.6c-1-0.1-1.5-0.4-1.4-1.5c0.1-0.6,0-1.2,0.1-1.8c0.3-7.6-2.7-13.7-8.3-18.7
			c-5.9-5.2-12.9-8.3-20.2-10.6C51.6,15,46,12,41.6,6.9c-0.2-0.2-0.4-0.6-0.7-0.6c-0.1,0-0.1,0-0.2,0c-0.4,0.1-0.3,0.7-0.4,1
			c-0.5,1.6,0.2,3.2,0.1,5c-1.4-0.7-2.5-1.5-3.6-2.3c-2.7-2.2-4.8-4.8-6.5-7.8c-0.2-0.3-0.3-0.9-0.8-0.9c0,0-0.1,0-0.1,0
			C29,1.4,29.1,2.1,29,2.5c-0.2,1.9,0.1,3.7,0.6,5.5c0.1,0.3,0.4,0.7,0.1,1.1c-0.1,0.1-0.2,0.1-0.3,0.1c-0.3,0-0.5-0.2-0.7-0.3
			c-3.5-1.9-6.5-4.2-8.7-7.6C19.6,0.9,19.5,0,18.9,0c0,0-0.1,0-0.1,0c-0.6,0.1-0.6,1-0.8,1.5c-3.1,9.7-1.9,18.6,5.2,26.3
			c0.6,0.7,0.8,1.1-0.2,1.6c-6.8,3.8-10.5,9.6-11.1,17.3c-0.1,1.3-0.6,1.7-1.8,1.8c-5.5,0.8-8.8,4.2-9.8,9.6
			c-0.7,3.8-0.1,7.4,0.8,11.1c1.3,5.6,4.9,8.9,10.5,10c1.5,0.3,3,0.5,4.4,0.5c1.7,0,3.5-0.2,5.3-0.7c1.4,0,2.5,1.2,2.9,1.9
			c1,1.8,2,5.2,3.1,5.4c2.6,0.5,11.5,0,11.5,0c0-2.3-4.3-3.3-8.6-7.2c-3.9-3.9-8.1-7.1-10.3-13.2c-1-1.6-1.6-3.4-1.9-5.3
			c-0.5-0.4-1-0.7-1-0.7L16,59.7v-1.2v-2v-1.1l1-0.4c0.7-0.3,1.2-0.6,1.5-0.8c2.1-6.9,8.4-10.9,14.9-10.9c6,0,11.2,3.3,14.5,6
			c0.6,0.5,1,0.7,1.4,0.7c0.5,0,0.8-0.3,1.4-0.9c7.7-7.7,16.9-7.5,23.1-2.6c2.4,1.9,4.5,4.7,5.5,7.6c0.4,0.3,0.9,0.6,1.8,1l1,0.4
			v1.1v2v1.2l-1.1,0.4c0,0-0.2,0.1-0.4,0.2c-0.1,1-0.2,2.1-0.6,3.3c-2.7,9.1-8.7,13.2-13.5,17.6c0,0,0,0,0,0c-1,0.9-6.1,3.7-6.1,5
			c0,1,9.5,0.3,9.8,0.3c0.5,0,0.9-0.3,1.2-1c1.4-2.3,5-5.9,6-5.9c0.5,0,1.1,0.1,2,0.3c1.2,0.2,2.3,0.3,3.4,0.3c5,0,9.2-2.3,12-6.6
			C97.7,69.2,98.6,64.3,98.1,59.2z M17,70.6c1.8,2.5-0.1,3.4-2.7,3.4c-4.8,0-9-6.8-9.3-11.2c-0.1-1.3-0.6-4.4,3.5-4.4
			c0.3,0,0.6,0,0.9,0C12.7,58.6,14.4,66.9,17,70.6z M92.6,62.7c-1.1,3.3-2.9,6.2-5.2,8.8c-1.6,1.6-3.5,2.6-4.8,2.6
			c-1.7,0-2.2-1.7,0.6-6.1c2.4-3.7,3-8.7,5.5-9.4c0,0,0,0,0,0c0.1,0,0.2,0,0.4-0.1c0.2,0,0.4,0,0.5-0.1c0.1,0,0.3,0,0.4,0
			C92.4,58.4,93.4,60,92.6,62.7z"/>
		<path class="st1" d="M80.5,57v-0.6c-0.1,0-0.1,0-0.2-0.1C80.4,56.6,80.5,56.8,80.5,57z"/>
	</g>
	<path class="st1" d="M46.3,70.3c0.5,0.7,0.5,1.6-0.1,2c-0.5,0.4-1.4,0.1-1.9-0.7c-0.5-0.7-0.5-1.6,0.1-2
		C45,69.3,45.8,69.6,46.3,70.3"/>
	<path class="st1" d="M50.4,70.3c-0.5,0.7-0.5,1.6,0.1,2c0.5,0.4,1.4,0.1,1.9-0.7c0.5-0.7,0.5-1.6-0.1-2
		C51.8,69.3,50.9,69.6,50.4,70.3"/>
	<path class="st0" d="M77.9,54.9c-1.6-5.5-6.7-9.6-12.7-9.6c-6.6,0-12.1,4.9-13.1,11.3c-1.1-0.4-2.1-0.5-3-0.5
		c-1.3,0-2.5,0.3-3.3,0.5c-0.9-6.4-6.4-11.3-13.1-11.3c-6.1,0-11.2,4.2-12.7,9.8c-0.5,0.4-1.2,0.9-2.4,1.4v2c0,0,1.1,0.5,2,1.5
		c0.8,6.6,6.3,11.7,13.1,11.7c7.3,0,13.2-5.9,13.2-13.2c0.6-0.2,1.8-0.6,3.1-0.6c0.9,0,1.9,0.1,2.9,0.6c0,7.3,5.9,13.2,13.2,13.2
		c6.7,0,12.2-5,13.1-11.4c0.9-1.3,2.2-1.8,2.2-1.8v-2C79.2,55.9,78.3,55.2,77.9,54.9z M23.5,61.6c-1.1-3.8-0.4-4.5,0.1-6.5
		c0.6-2.5,3.6-5.7,6.1-5.7c0.7,0,1,1.1,0.7,1.7C28.2,54.5,25.9,57.9,23.5,61.6z M39.2,51.5c-0.1,0.2-0.3,0.5-0.5,0.7
		c-3.2,4.4-6.4,8.8-9.6,13.1c-0.4,0.6-0.9,1.8-1.9,1.4c-1.5-0.5-1.5-1.4-0.5-2.5c3.7-4.3,7.5-8.6,11.3-12.9c0.3-0.3,0.5-0.8,1-0.6
		C39.2,50.9,39.3,51.1,39.2,51.5z M55.9,61.6c-1.1-3.8-0.4-4.5,0.1-6.5c0.7-2.5,3.6-5.7,6.1-5.7c0.7,0,1,1.1,0.7,1.7
		C60.6,54.5,58.3,57.9,55.9,61.6z M71.6,51.5c-0.1,0.2-0.3,0.5-0.5,0.7c-3.2,4.4-6.4,8.8-9.6,13.1c-0.4,0.6-0.9,1.8-1.9,1.4
		c-1.5-0.5-1.5-1.4-0.5-2.5c3.7-4.3,7.5-8.6,11.3-12.9c0.3-0.3,0.5-0.8,1-0.6C71.6,50.9,71.7,51.1,71.6,51.5z"/>
</g>
</svg>
