<svg xmlns="http://www.w3.org/2000/svg" width="41.458" height="28.021" viewBox="0 0 41.458 28.021"><defs><style>.a{fill:#fff;}</style></defs><path class="a" d="M41.6,13.357a9.17,9.17,0,0,0-2.48-5.5A15.62,15.62,0,0,0,35.6,4.952c-.1-.066-.3-.077-.2-.318.349-.79.151-1.152-.745-1.437a.98.98,0,0,0-.291-1.383,13.613,13.613,0,0,0-2.3-1.5,1.184,1.184,0,0,0-1.478.208c-.5.472-1.024.933-1.525,1.415a.572.572,0,0,1-.594.154,32.671,32.671,0,0,0-15.343.055.576.576,0,0,1-.629-.165c-.524-.5-1.083-.988-1.618-1.492A1.073,1.073,0,0,0,9.586.267,11.389,11.389,0,0,0,7.036,1.935.889.889,0,0,0,6.78,3.076c.081.154.012.165-.116.208-.78.274-.966.845-.489,1.481.1.132.093.176-.035.263-.373.241-.745.483-1.106.757a10.94,10.94,0,0,0-4.342,5.5,10.475,10.475,0,0,0,2.363,10.49,16.983,16.983,0,0,0,7.59,4.762,33.457,33.457,0,0,0,17.974.746,19.952,19.952,0,0,0,8.673-4.049A11.247,11.247,0,0,0,41.6,13.357Zm-1.409-2.4a7.852,7.852,0,0,1,.535,1.9c.023.176.047.307-.233.285-4.249-.417-8.242.582-12.177,1.964-.093.033-.186.055-.3.1a14.593,14.593,0,0,0,.221-3.753,9.592,9.592,0,0,1,.9-4.828c.116-.274.221-.406.582-.34a3.836,3.836,0,0,0,2.177-.439,9.713,9.713,0,0,1,2.5-.636.394.394,0,0,1,.279.066A12.517,12.517,0,0,1,40.191,10.954ZM28.084,2.78c-.012.022-.012.055-.023.077A16.184,16.184,0,0,0,24.487,8.2c-1.164,2.414-2.223,4.883-3.341,7.308-.151.318-.244.647-.407,1.064-.524-1.635-1.35-3.05-1.979-4.554-.757-1.81-1.63-3.566-2.5-5.333a12.749,12.749,0,0,0-2.817-3.807C15.628,1.715,25.232,1.661,28.084,2.78ZM1.064,12.929A7.983,7.983,0,0,1,2.275,9.692,13.378,13.378,0,0,1,7.036,5.336c.349-.208.722-.033,1.071.055a10.208,10.208,0,0,1,1.886.625,3.368,3.368,0,0,0,1.921.241.287.287,0,0,1,.361.187,9.381,9.381,0,0,1,.978,4.521,16.218,16.218,0,0,0,.175,3.972c.012.066.047.132-.023.219-1.024-.373-2.06-.735-3.12-1.031A24.486,24.486,0,0,0,2.461,13.1c-.349.022-.71.044-1.059.1C1.1,13.259,1.041,13.182,1.064,12.929Zm2.445,6.518c-.128.121-.186.055-.268-.033a8.064,8.064,0,0,1-2.177-5.135c0-.241.07-.34.349-.373a19.349,19.349,0,0,1,6.158.318,31.309,31.309,0,0,1,6.752,2.1.47.47,0,0,0,.338.088c-.838-1.887-.71-3.873-.652-5.859a9.976,9.976,0,0,0-1.129-4.5.8.8,0,0,0-.966-.494,3.01,3.01,0,0,1-1.932-.329,9.308,9.308,0,0,0-2.363-.658A2.085,2.085,0,0,1,6.8,4.349a.274.274,0,0,1-.151-.307c.035-.132.175-.121.279-.121a2.866,2.866,0,0,1,1.385.34,1.04,1.04,0,0,0,.966.055c.687-.252.7-.23,1.211.285.3.307.605.658,1.141.483C11.262,4.711,10.9,4.371,10.575,4c-.594-.68-.838-.571-.314-1.646-.21.143-.338.23-.454.318-.361.274-.477.241-.629-.187-.035-.088-.023-.187-.116-.252-.2.23.151.724-.431.746.012.176.431.11.163.439.664-.3.815-.274.931.1.023.077.07.143-.023.208a1.753,1.753,0,0,1-1.292.033,4.6,4.6,0,0,1-.9-.856.378.378,0,0,1,.07-.593,1.3,1.3,0,0,1,.186-.165C8.375,1.77,8.981,1.386,9.574,1a.654.654,0,0,1,.908.077C11.53,2.034,12.554,3,13.544,4a11.741,11.741,0,0,1,1.921,2.743C17,9.7,18.282,12.776,19.679,15.793a6.2,6.2,0,0,1,.524,1.821,1.533,1.533,0,0,1-1.42,1.865,36.1,36.1,0,0,1-3.609.318,36.066,36.066,0,0,1-10.186-.68A1.539,1.539,0,0,0,3.509,19.447Zm33.876,1.141a18.9,18.9,0,0,1-7.124,3.851,30.7,30.7,0,0,1-21.129-.911,16.594,16.594,0,0,1-4.959-3.16c-.093-.088-.268-.143-.21-.307a.465.465,0,0,1,.4-.263,1.1,1.1,0,0,1,.466.033,37.639,37.639,0,0,0,10.873.658c.931-.077,1.874-.143,2.806-.23a2.679,2.679,0,0,0,2.247-1.273,2.85,2.85,0,0,0,2.48,1.306,55.408,55.408,0,0,0,7.637.285,36.237,36.237,0,0,0,5.541-.7,1.944,1.944,0,0,1,.71-.088.678.678,0,0,1,.512.439C37.711,20.435,37.49,20.489,37.385,20.588ZM40.8,14.147a8.736,8.736,0,0,1-2.421,5.464c-.047.044-.1.088-.163.143a1.492,1.492,0,0,0-1.781-.625,38.613,38.613,0,0,1-11.676.56c-.652-.066-1.3-.088-1.956-.187a1.569,1.569,0,0,1-1.5-2.019,10.645,10.645,0,0,1,1.059-2.919c1.129-2.37,2.142-4.795,3.318-7.143a14.355,14.355,0,0,1,3.1-4.257c.757-.691,1.5-1.394,2.247-2.1a.577.577,0,0,1,.792-.11c.664.417,1.315.845,1.967,1.284a.46.46,0,0,1,.116.779,4.968,4.968,0,0,1-.92.834,2.02,2.02,0,0,1-1.222-.11c-.116-.121.012-.23.058-.329a.283.283,0,0,1,.373-.187,3.623,3.623,0,0,1,.431.2c-.1-.252.116-.285.268-.406-.629-.044-.3-.516-.477-.79-.163.219-.128.658-.454.636-.233-.011-.442-.285-.687-.472-.012.066-.035.11-.023.143.373.669.373.724-.175,1.295-.361.362-.745.7-1.118,1.053-.058.055-.163.088-.116.187s.14.077.233.077a1.041,1.041,0,0,0,.827-.45,1.018,1.018,0,0,1,1.432-.34.745.745,0,0,0,.768-.055,3.069,3.069,0,0,1,1.42-.373c.128,0,.279-.033.326.121a.287.287,0,0,1-.186.329,1.862,1.862,0,0,1-.4.132,11.275,11.275,0,0,0-3.1.867,2.609,2.609,0,0,1-1.537.2.781.781,0,0,0-1,.494A9.746,9.746,0,0,0,27.5,10.779a17.494,17.494,0,0,1-.221,4.411,9.536,9.536,0,0,1-.466,1.284,35.742,35.742,0,0,1,7.241-2.249A20.533,20.533,0,0,1,40.5,13.84C40.691,13.862,40.819,13.895,40.8,14.147Z" transform="translate(-0.177 -0.14)"/></svg>